<svg xmlns="http://www.w3.org/2000/svg" width="2000" height="1000" display="block"><path stroke-linejoin="round" stroke-miterlimit="1" fill="#0d0d0d" stroke="#0d0d0d" d="M1001-53H465l379 4z"/><path stroke-linejoin="round" stroke-miterlimit="1" fill="#0c0c0c" stroke="#0c0c0c" d="M1001 1050l-333-22-270 22z"/><path stroke-linejoin="round" stroke-miterlimit="1" fill="#121313" stroke="#121313" d="M2074 1050l-521-34-184 34z"/><path stroke-linejoin="round" stroke-miterlimit="1" fill="#1a1c1c" stroke="#1a1c1c" d="M2105-53h-297l75 18z"/><path stroke-linejoin="round" stroke-miterlimit="1" fill="#0f0f0f" stroke="#0f0f0f" d="M2195 68l-182 109 143 134z"/><path stroke-linejoin="round" stroke-miterlimit="1" fill="#151616" stroke="#151616" d="M2213 734l-30 26 30 41z"/><path stroke-linejoin="round" stroke-miterlimit="1" fill="#0f100f" stroke="#0f100f" d="M2213-53h-108l90 121z"/><path stroke-linejoin="round" stroke-miterlimit="1" fill="#111" stroke="#111" d="M2213 575l-174 35 13 62z"/><path stroke-linejoin="round" stroke-miterlimit="1" fill="#131413" stroke="#131413" d="M2213 575v-76l-128 11z"/><path stroke-linejoin="round" stroke-miterlimit="1" fill="#101111" stroke="#101111" d="M2213 575l-128-65-46 100z"/><path stroke-linejoin="round" stroke-miterlimit="1" fill="#323937" stroke="#323937" d="M2213 729l-30 31 30-26z"/><path stroke-linejoin="round" stroke-miterlimit="1" fill="#0e0f0f" stroke="#0e0f0f" d="M2213 729l-161-57 131 88z"/><path stroke-linejoin="round" stroke-miterlimit="1" fill="#101110" stroke="#101110" d="M2213 729V575l-161 97z"/><path stroke-linejoin="round" stroke-miterlimit="1" fill="#0e0e0e" stroke="#0e0e0e" d="M2213 1050l-77-45-62 45z"/><path stroke-linejoin="round" stroke-miterlimit="1" fill="#0f0f0f" stroke="#0f0f0f" d="M2213 882l-132 56 55 67z"/><path stroke-linejoin="round" stroke-miterlimit="1" fill="#0c0c0c" stroke="#0c0c0c" d="M2213 882l-77 123 77 45z"/><path stroke-linejoin="round" stroke-miterlimit="1" fill="#101111" stroke="#101111" d="M2213 445l-128 65 128-11z"/><path stroke-linejoin="round" stroke-miterlimit="1" fill="#111211" stroke="#111211" d="M2213 445l-57-134-71 199z"/><path stroke-linejoin="round" stroke-miterlimit="1" fill="#0f0f0f" stroke="#0f0f0f" d="M2213 445l-18-377-39 243z"/><path stroke-linejoin="round" stroke-miterlimit="1" fill="#1e2020" stroke="#1e2020" d="M2213 445V-53l-18 121z"/><path stroke-linejoin="round" stroke-miterlimit="1" fill="#0c0c0c" stroke="#0c0c0c" d="M2213 864v-63l-30-41z"/><path stroke-linejoin="round" stroke-miterlimit="1" fill="#0f1010" stroke="#0f1010" d="M2213 864l-30-104-102 178z"/><path stroke-linejoin="round" stroke-miterlimit="1" fill="#1d1f1f" stroke="#1d1f1f" d="M2213 864l-132 74 132-56z"/><path stroke-linejoin="round" stroke-miterlimit="1" fill="#111" stroke="#111" d="M2183 760l-202 62 100 116z"/><path stroke-linejoin="round" stroke-miterlimit="1" fill="#101010" stroke="#101010" d="M2195 68l-90-121-92 230z"/><path stroke-linejoin="round" stroke-miterlimit="1" fill="#0f100f" stroke="#0f100f" d="M2183 760l-131-88-71 150z"/><path stroke-linejoin="round" stroke-miterlimit="1" fill="#101111" stroke="#101111" d="M2052 672l-62 38-9 112z"/><path stroke-linejoin="round" stroke-miterlimit="1" fill="#131413" stroke="#131413" d="M2085 510l-104-224-8 205z"/><path stroke-linejoin="round" stroke-miterlimit="1" fill="#0e0f0f" stroke="#0e0f0f" d="M2105-53l-160 192 68 38z"/><path stroke-linejoin="round" stroke-miterlimit="1" fill="#0f0f0f" stroke="#0f0f0f" d="M2156 311l-175-25 104 224z"/><path stroke-linejoin="round" stroke-miterlimit="1" fill="#0d0d0d" stroke="#0d0d0d" d="M2156 311l-143-134-32 109z"/><path stroke-linejoin="round" stroke-miterlimit="1" fill="#111211" stroke="#111211" d="M1981 286l-66 96 58 109z"/><path stroke-linejoin="round" stroke-miterlimit="1" fill="#0f1010" stroke="#0f1010" d="M2136 1005l-55-67-7 112z"/><path stroke-linejoin="round" stroke-miterlimit="1" fill="#101010" stroke="#101010" d="M2074 1050l-441-98-80 64z"/><path stroke-linejoin="round" stroke-miterlimit="1" fill="#0e0f0e" stroke="#0e0f0e" d="M2105-53l-222 18 62 174z"/><path stroke-linejoin="round" stroke-miterlimit="1" fill="#161818" stroke="#161818" d="M1973 491l-58-109 26 89z"/><path stroke-linejoin="round" stroke-miterlimit="1" fill="#101010" stroke="#101010" d="M2039 610l-66-119 6 108z"/><path stroke-linejoin="round" stroke-miterlimit="1" fill="#101111" stroke="#101111" d="M2081 938l-222-72 215 184z"/><path stroke-linejoin="round" stroke-miterlimit="1" fill="#131413" stroke="#131413" d="M2085 510l-112-19 66 119z"/><path stroke-linejoin="round" stroke-miterlimit="1" fill="#111" stroke="#111" d="M2052 672l-13-62-18 40z"/><path stroke-linejoin="round" stroke-miterlimit="1" fill="#101111" stroke="#101111" d="M2074 1050l-215-184-226 86z"/><path stroke-linejoin="round" stroke-miterlimit="1" fill="#0f0f0f" stroke="#0f0f0f" d="M2081 938l-100-116-122 44z"/><path stroke-linejoin="round" stroke-miterlimit="1" fill="#0c0c0c" stroke="#0c0c0c" d="M2013 177l-45 16 13 93z"/><path stroke-linejoin="round" stroke-miterlimit="1" fill="#0d0d0e" stroke="#0d0d0e" d="M2052 672l-31-22-31 60z"/><path stroke-linejoin="round" stroke-miterlimit="1" fill="#131414" stroke="#131414" d="M1945 139l-62-174 23 167zm94 471l-60-11 42 51z"/><path stroke-linejoin="round" stroke-miterlimit="1" fill="#0e0f0f" stroke="#0e0f0f" d="M2021 650l-42-51 11 111z"/><path stroke-linejoin="round" stroke-miterlimit="1" fill="#0c0c0c" stroke="#0c0c0c" d="M2013 177l-68-38 23 54z"/><path stroke-linejoin="round" stroke-miterlimit="1" fill="#101111" stroke="#101111" d="M1979 599l-6-108-102 56z"/><path stroke-linejoin="round" stroke-miterlimit="1" fill="#141515" stroke="#141515" d="M1981 822l-157-80-4 65z"/><path stroke-linejoin="round" stroke-miterlimit="1" fill="#111212" stroke="#111212" d="M1990 710l-11-111h-156z"/><path stroke-linejoin="round" stroke-miterlimit="1" fill="#131414" stroke="#131414" d="M1990 710l-167-111 1 143z"/><path stroke-linejoin="round" stroke-miterlimit="1" fill="#101010" stroke="#101010" d="M1990 710l-166 32 157 80z"/><path stroke-linejoin="round" stroke-miterlimit="1" fill="#111212" stroke="#111212" d="M1968 193l-62-61-187 177z"/><path stroke-linejoin="round" stroke-miterlimit="1" fill="#131514" stroke="#131514" d="M1973 491l-32-20-70 76z"/><path stroke-linejoin="round" stroke-miterlimit="1" fill="#121313" stroke="#121313" d="M1979 599l-108-52-48 52zm2 223l-161-15 39 59z"/><path stroke-linejoin="round" stroke-miterlimit="1" fill="#111212" stroke="#111212" d="M1981 286l-13-93-249 116z"/><path stroke-linejoin="round" stroke-miterlimit="1" fill="#121312" stroke="#121312" d="M1981 286l-262 23 196 73z"/><path stroke-linejoin="round" stroke-miterlimit="1" fill="#181a1a" stroke="#181a1a" d="M1968 193l-23-54-39-7z"/><path stroke-linejoin="round" stroke-miterlimit="1" fill="#101111" stroke="#101111" d="M1906 132l-23-167-71 13z"/><path stroke-linejoin="round" stroke-miterlimit="1" fill="#101010" stroke="#101010" d="M1941 471l-71 75 1 1z"/><path stroke-linejoin="round" stroke-miterlimit="1" fill="#101111" stroke="#101111" d="M1941 471l-26-89-113 59z"/><path stroke-linejoin="round" stroke-miterlimit="1" fill="#0e0e0e" stroke="#0e0e0e" d="M1906 132l-94-154-43 48z"/><path stroke-linejoin="round" stroke-miterlimit="1" fill="#141515" stroke="#141515" d="M1941 471l-139-30 68 105z"/><path stroke-linejoin="round" stroke-miterlimit="1" fill="#121312" stroke="#121312" d="M1906 132l-251-9 64 186z"/><path stroke-linejoin="round" stroke-miterlimit="1" fill="#121413" stroke="#121413" d="M1915 382l-196-73 83 132z"/><path stroke-linejoin="round" stroke-miterlimit="1" fill="#101111" stroke="#101111" d="M1906 132L1769 26l-114 97z"/><path stroke-linejoin="round" stroke-miterlimit="1" fill="#161717" stroke="#161717" d="M1824 742l-1-143-54 27z"/><path stroke-linejoin="round" stroke-miterlimit="1" fill="#141516" stroke="#141516" d="M1859 866l-127-50-99 136z"/><path stroke-linejoin="round" stroke-miterlimit="1" fill="#1a1c1c" stroke="#1a1c1c" d="M1883-35l-75-18 4 31z"/><path stroke-linejoin="round" stroke-miterlimit="1" fill="#141515" stroke="#141515" d="M1870 546l-68-105 21 158z"/><path stroke-linejoin="round" stroke-miterlimit="1" fill="#1f2322" stroke="#1f2322" d="M1871 547l-1-1-47 53z"/><path stroke-linejoin="round" stroke-miterlimit="1" fill="#161817" stroke="#161817" d="M1823 599l-21-158-73 8z"/><path stroke-linejoin="round" stroke-miterlimit="1" fill="#121313" stroke="#121313" d="M1859 866l-39-59-88 9z"/><path stroke-linejoin="round" stroke-miterlimit="1" fill="#101111" stroke="#101111" d="M1719 309l-64-186 38 180z"/><path stroke-linejoin="round" stroke-miterlimit="1" fill="#161817" stroke="#161817" d="M1802 441l-105-84 32 92z"/><path stroke-linejoin="round" stroke-miterlimit="1" fill="#191b1a" stroke="#191b1a" d="M1802 441l-83-132-22 48z"/><path stroke-linejoin="round" stroke-miterlimit="1" fill="#1a1c1c" stroke="#1a1c1c" d="M1820 807l-106-34 18 43z"/><path stroke-linejoin="round" stroke-miterlimit="1" fill="#131414" stroke="#131414" d="M1823 599l-94-150 40 177z"/><path stroke-linejoin="round" stroke-miterlimit="1" fill="#151616" stroke="#151616" d="M1824 742l-110 31 106 34z"/><path stroke-linejoin="round" stroke-miterlimit="1" fill="#161717" stroke="#161717" d="M1824 742l-55-116-55 147z"/><path stroke-linejoin="round" stroke-miterlimit="1" fill="#0e0f0e" stroke="#0e0f0e" d="M1812-22l-4-31-39 79z"/><path stroke-linejoin="round" stroke-miterlimit="1" fill="#181a1a" stroke="#181a1a" d="M1769 626l-40-177-94 162z"/><path stroke-linejoin="round" stroke-miterlimit="1" fill="#101010" stroke="#101010" d="M1808-53L1669-9l100 35z"/><path stroke-linejoin="round" stroke-miterlimit="1" fill="#111" stroke="#111" d="M1808-53h-157l18 44z"/><path stroke-linejoin="round" stroke-miterlimit="1" fill="#1b1f1e" stroke="#1b1f1e" d="M1729 449l-91 16-3 146z"/><path stroke-linejoin="round" stroke-miterlimit="1" fill="#1d1e1f" stroke="#1d1e1f" d="M1769 626l-134-15 79 162z"/><path stroke-linejoin="round" stroke-miterlimit="1" fill="#0f1010" stroke="#0f1010" d="M1769 26L1669-9l-14 132z"/><path stroke-linejoin="round" stroke-miterlimit="1" fill="#0c0c0c" stroke="#0c0c0c" d="M398 1050l-48-8-560 8z"/><path stroke-linejoin="round" stroke-miterlimit="1" fill="#131514" stroke="#131514" d="M1651-53h-421l288 67z"/><path stroke-linejoin="round" stroke-miterlimit="1" fill="#111212" stroke="#111212" d="M1693 303l-38-180-81 35z"/><path stroke-linejoin="round" stroke-miterlimit="1" fill="#151716" stroke="#151716" d="M1693 303l-119-145 44 159z"/><path stroke-linejoin="round" stroke-miterlimit="1" fill="#232426" stroke="#232426" d="M1714 773l-79-162-69 142z"/><path stroke-linejoin="round" stroke-miterlimit="1" fill="#1a1d1c" stroke="#1a1d1c" d="M1729 449l-32-92-59 108z"/><path stroke-linejoin="round" stroke-miterlimit="1" fill="#131414" stroke="#131414" d="M1732 816l-206 63 107 73z"/><path stroke-linejoin="round" stroke-miterlimit="1" fill="#111112" stroke="#111112" d="M1732 816l-18-43-148-20z"/><path stroke-linejoin="round" stroke-miterlimit="1" fill="#141515" stroke="#141515" d="M1732 816l-166-63-40 126z"/><path stroke-linejoin="round" stroke-miterlimit="1" fill="#141615" stroke="#141615" d="M1719 309l-26-6 4 54z"/><path stroke-linejoin="round" stroke-miterlimit="1" fill="#101111" stroke="#101111" d="M1669-9l-50-7 36 139z"/><path stroke-linejoin="round" stroke-miterlimit="1" fill="#121312" stroke="#121312" d="M1697 357l-4-54-75 14z"/><path stroke-linejoin="round" stroke-miterlimit="1" fill="#191c1b" stroke="#191c1b" d="M1697 357l-79-40 20 148z"/><path stroke-linejoin="round" stroke-miterlimit="1" fill="#222325" stroke="#222325" d="M1635 611l-89 14 20 128z"/><path stroke-linejoin="round" stroke-miterlimit="1" fill="#1c1f1f" stroke="#1c1f1f" d="M1638 465l-92 160 89-14z"/><path stroke-linejoin="round" stroke-miterlimit="1" fill="#101010" stroke="#101010" d="M1651-53l-133 67 101-30z"/><path stroke-linejoin="round" stroke-miterlimit="1" fill="#121313" stroke="#121313" d="M1655 123l-36-139-101 30z"/><path stroke-linejoin="round" stroke-miterlimit="1" fill="#101111" stroke="#101111" d="M1655 123L1518 14l56 144z"/><path stroke-linejoin="round" stroke-miterlimit="1" fill="#0d0d0d" stroke="#0d0d0d" d="M1669-9l-18-44-32 37z"/><path stroke-linejoin="round" stroke-miterlimit="1" fill="#131514" stroke="#131514" d="M1618 317l-44-159-72 112z"/><path stroke-linejoin="round" stroke-miterlimit="1" fill="#1a1e1c" stroke="#1a1e1c" d="M1638 465l-20-148-160 63z"/><path stroke-linejoin="round" stroke-miterlimit="1" fill="#0f0f0f" stroke="#0f0f0f" d="M1553 1016l-108-9-76 43z"/><path stroke-linejoin="round" stroke-miterlimit="1" fill="#1d211f" stroke="#1d211f" d="M1638 465l-180-85 88 245z"/><path stroke-linejoin="round" stroke-miterlimit="1" fill="#131313" stroke="#131313" d="M1633 952l-107-73 27 137z"/><path stroke-linejoin="round" stroke-miterlimit="1" fill="#171918" stroke="#171918" d="M1546 625l-88-245-74 187z"/><path stroke-linejoin="round" stroke-miterlimit="1" fill="#161817" stroke="#161817" d="M1618 317l-116-47-44 110z"/><path stroke-linejoin="round" stroke-miterlimit="1" fill="#111" stroke="#111" d="M1384 51L1230-53l36 50z"/><path stroke-linejoin="round" stroke-miterlimit="1" fill="#121313" stroke="#121313" d="M1518 14l-288-67 154 104z"/><path stroke-linejoin="round" stroke-miterlimit="1" fill="#0f0f0f" stroke="#0f0f0f" d="M1553 1016l-27-137-81 128z"/><path stroke-linejoin="round" stroke-miterlimit="1" fill="#171818" stroke="#171818" d="M1566 753l-20-128-81 60z"/><path stroke-linejoin="round" stroke-miterlimit="1" fill="#101111" stroke="#101111" d="M1574 158l-56-144-75 162z"/><path stroke-linejoin="round" stroke-miterlimit="1" fill="#121313" stroke="#121313" d="M1574 158l-131 18 59 94z"/><path stroke-linejoin="round" stroke-miterlimit="1" fill="#18191a" stroke="#18191a" d="M1566 753l-101-68 61 194z"/><path stroke-linejoin="round" stroke-miterlimit="1" fill="#111" stroke="#111" d="M1331 1050l-83-20-164 20zM1518 14l-134 37 59 125z"/><path stroke-linejoin="round" stroke-miterlimit="1" fill="#121313" stroke="#121313" d="M1526 879l-61-194-120 185z"/><path stroke-linejoin="round" stroke-miterlimit="1" fill="#161717" stroke="#161717" d="M1546 625l-162-58 81 118z"/><path stroke-linejoin="round" stroke-miterlimit="1" fill="#0f1010" stroke="#0f1010" d="M1502 270l-59-94 14 98z"/><path stroke-linejoin="round" stroke-miterlimit="1" fill="#131514" stroke="#131514" d="M1502 270l-45 4 1 106z"/><path stroke-linejoin="round" stroke-miterlimit="1" fill="#0f0f10" stroke="#0f0f10" d="M1526 879l-137 85 56 43z"/><path stroke-linejoin="round" stroke-miterlimit="1" fill="#131414" stroke="#131414" d="M1526 879l-181-9 44 94z"/><path stroke-linejoin="round" stroke-miterlimit="1" fill="#141616" stroke="#141616" d="M1384 567l-60-22 21 325z"/><path stroke-linejoin="round" stroke-miterlimit="1" fill="#131514" stroke="#131514" d="M1457 274l-14-98-67 30z"/><path stroke-linejoin="round" stroke-miterlimit="1" fill="#111212" stroke="#111212" d="M1458 380l-134 165 60 22z"/><path stroke-linejoin="round" stroke-miterlimit="1" fill="#121313" stroke="#121313" d="M1458 380l-1-106-129-4z"/><path stroke-linejoin="round" stroke-miterlimit="1" fill="#121212" stroke="#121212" d="M1465 685l-81-118-39 303z"/><path stroke-linejoin="round" stroke-miterlimit="1" fill="#111" stroke="#111" d="M1443 176l-59-125-8 155z"/><path stroke-linejoin="round" stroke-miterlimit="1" fill="#111211" stroke="#111211" d="M1458 380l-130-110-4 275z"/><path stroke-linejoin="round" stroke-miterlimit="1" fill="#0f1010" stroke="#0f1010" d="M1457 274l-81-68-48 64z"/><path stroke-linejoin="round" stroke-miterlimit="1" fill="#0f0f0f" stroke="#0f0f0f" d="M1384 51l-81 118 73 37z"/><path stroke-linejoin="round" stroke-miterlimit="1" fill="#101111" stroke="#101111" d="M1445 1007l-56-43-20 86z"/><path stroke-linejoin="round" stroke-miterlimit="1" fill="#111212" stroke="#111212" d="M1324 545l-268 256 250 84z"/><path stroke-linejoin="round" stroke-miterlimit="1" fill="#121313" stroke="#121313" d="M1328 270l-167 216 163 59zm17 600l-21-325-18 340z"/><path stroke-linejoin="round" stroke-miterlimit="1" fill="#0e0f0f" stroke="#0e0f0f" d="M1389 964l-83-79-40 25z"/><path stroke-linejoin="round" stroke-miterlimit="1" fill="#131414" stroke="#131414" d="M1389 964l-149-8 91 94z"/><path stroke-linejoin="round" stroke-miterlimit="1" fill="#0f0f0f" stroke="#0f0f0f" d="M1389 964l-123-54-26 46z"/><path stroke-linejoin="round" stroke-miterlimit="1" fill="#101010" stroke="#101010" d="M1389 964l-44-94-39 15z"/><path stroke-linejoin="round" stroke-miterlimit="1" fill="#0e0e0e" stroke="#0e0e0e" d="M1389 964l-58 86h38z"/><path stroke-linejoin="round" stroke-miterlimit="1" fill="#101111" stroke="#101111" d="M1384 51L1266-3l37 172zm-60 494l-316 107 48 149z"/><path stroke-linejoin="round" stroke-miterlimit="1" fill="#0f1010" stroke="#0f1010" d="M1376 206l-73-37 25 101z"/><path stroke-linejoin="round" stroke-miterlimit="1" fill="#101110" stroke="#101110" d="M1328 270l-145-26-22 242z"/><path stroke-linejoin="round" stroke-miterlimit="1" fill="#0c0c0c" stroke="#0c0c0c" d="M1331 1050l-91-94 8 74z"/><path stroke-linejoin="round" stroke-miterlimit="1" fill="#0f0f0f" stroke="#0f0f0f" d="M1161 486l-67 23-86 143z"/><path stroke-linejoin="round" stroke-miterlimit="1" fill="#0f1010" stroke="#0f1010" d="M1306 885l-149 24 109 1z"/><path stroke-linejoin="round" stroke-miterlimit="1" fill="#111212" stroke="#111212" d="M1306 885l-250-84 101 108zm18-340l-163-59-153 166z"/><path stroke-linejoin="round" stroke-miterlimit="1" fill="#101111" stroke="#101111" d="M1328 270l-25-101-120 75z"/><path stroke-linejoin="round" stroke-miterlimit="1" fill="#0e0e0e" stroke="#0e0e0e" d="M1303 169L1266-3l-145 176z"/><path stroke-linejoin="round" stroke-miterlimit="1" fill="#101010" stroke="#101010" d="M1303 169l-182 4 62 71z"/><path stroke-linejoin="round" stroke-miterlimit="1" fill="#121313" stroke="#121313" d="M1266-3l-36-50-109 226z"/><path stroke-linejoin="round" stroke-miterlimit="1" fill="#101010" stroke="#101010" d="M1266 910l-109-1 83 47z"/><path stroke-linejoin="round" stroke-miterlimit="1" fill="#0e0f0f" stroke="#0e0f0f" d="M1183 244L990 364l171 122z"/><path stroke-linejoin="round" stroke-miterlimit="1" fill="#0f100f" stroke="#0f100f" d="M1230-53h-229l120 226z"/><path stroke-linejoin="round" stroke-miterlimit="1" fill="#111" stroke="#111" d="M1248 1030l-8-74h-140z"/><path stroke-linejoin="round" stroke-miterlimit="1" fill="#0c0c0c" stroke="#0c0c0c" d="M1248 1030l-148-74-16 94z"/><path stroke-linejoin="round" stroke-miterlimit="1" fill="#101010" stroke="#101010" d="M1240 956l-83-47-57 47zm-79-470L990 364l104 145z"/><path stroke-linejoin="round" stroke-miterlimit="1" fill="#0e0e0e" stroke="#0e0e0e" d="M1183 244l-62-71-115 72z"/><path stroke-linejoin="round" stroke-miterlimit="1" fill="#0e0f0e" stroke="#0e0f0e" d="M1183 244l-177 1-16 119z"/><path stroke-linejoin="round" stroke-miterlimit="1" fill="#0c0c0c" stroke="#0c0c0c" d="M1157 909l-101-108-6 114z"/><path stroke-linejoin="round" stroke-miterlimit="1" fill="#0e0e0e" stroke="#0e0e0e" d="M1006 245l-16 20v99z"/><path stroke-linejoin="round" stroke-miterlimit="1" fill="#0c0c0d" stroke="#0c0c0d" d="M1157 909l-107 6 50 41z"/><path stroke-linejoin="round" stroke-miterlimit="1" fill="#0e0e0e" stroke="#0e0e0e" d="M1006 245l-5-298-152 80z"/><path stroke-linejoin="round" stroke-miterlimit="1" fill="#121313" stroke="#121313" d="M1094 509L990 364l-19 16z"/><path stroke-linejoin="round" stroke-miterlimit="1" fill="#0d0d0d" stroke="#0d0d0d" d="M1100 956l-66 79 42 15zm0 0l-24 94h8z"/><path stroke-linejoin="round" stroke-miterlimit="1" fill="#101010" stroke="#101010" d="M1121 173L1001-53l5 298z"/><path stroke-linejoin="round" stroke-miterlimit="1" fill="#111212" stroke="#111212" d="M1006 245L849 27l125 222z"/><path stroke-linejoin="round" stroke-miterlimit="1" fill="#121313" stroke="#121313" d="M1076 1050l-42-15 22 15z"/><path stroke-linejoin="round" stroke-miterlimit="1" fill="#0f0f0f" stroke="#0f0f0f" d="M1094 509l-159 88 73 55zm6 447l-78-9 12 88z"/><path stroke-linejoin="round" stroke-miterlimit="1" fill="#131414" stroke="#131414" d="M1100 956l-50-41-28 32z"/><path stroke-linejoin="round" stroke-miterlimit="1" fill="#0e0e0e" stroke="#0e0e0e" d="M1056 801l-71 74 65 40z"/><path stroke-linejoin="round" stroke-miterlimit="1" fill="#101010" stroke="#101010" d="M1094 509L971 380l-36 217z"/><path stroke-linejoin="round" stroke-miterlimit="1" fill="#0e0e0e" stroke="#0e0e0e" d="M971 380L867 512l68 85z"/><path stroke-linejoin="round" stroke-miterlimit="1" fill="#0f1010" stroke="#0f1010" d="M1056 801l-48-149-102 133z"/><path stroke-linejoin="round" stroke-miterlimit="1" fill="#0c0c0c" stroke="#0c0c0c" d="M225-53h-435L96-34zm831 1103l-22-15-33 15z"/><path stroke-linejoin="round" stroke-miterlimit="1" fill="#0d0e0e" stroke="#0d0e0e" d="M1056 801l-150-16 79 90z"/><path stroke-linejoin="round" stroke-miterlimit="1" fill="#0c0c0c" stroke="#0c0c0c" d="M1034 1035l-12-88-21 103z"/><path stroke-linejoin="round" stroke-miterlimit="1" fill="#0f0f0f" stroke="#0f0f0f" d="M1050 915l-65-40 37 72z"/><path stroke-linejoin="round" stroke-miterlimit="1" fill="#0d0d0d" stroke="#0d0d0d" d="M1001 1050l-235-78-98 56z"/><path stroke-linejoin="round" stroke-miterlimit="1" fill="#141515" stroke="#141515" d="M1022 947l-37-72-26 27z"/><path stroke-linejoin="round" stroke-miterlimit="1" fill="#131414" stroke="#131414" d="M1001-53L859-33l-10 60z"/><path stroke-linejoin="round" stroke-miterlimit="1" fill="#0c0c0c" stroke="#0c0c0c" d="M1022 947l-63-45 42 148z"/><path stroke-linejoin="round" stroke-miterlimit="1" fill="#0f0f0f" stroke="#0f0f0f" d="M844-49l-379-4L614 1zm130 298L849 27l-99 78z"/><path stroke-linejoin="round" stroke-miterlimit="1" fill="#0e0e0e" stroke="#0e0e0e" d="M990 364v-99l-19 115z"/><path stroke-linejoin="round" stroke-miterlimit="1" fill="#0e0f0f" stroke="#0e0f0f" d="M1001-53l-157 4 15 16z"/><path stroke-linejoin="round" stroke-miterlimit="1" fill="#0d0d0e" stroke="#0d0d0e" d="M1001 1050l-42-148-193 70z"/><path stroke-linejoin="round" stroke-miterlimit="1" fill="#101111" stroke="#101111" d="M1008 652l-73-55-29 188z"/><path stroke-linejoin="round" stroke-miterlimit="1" fill="#0c0c0c" stroke="#0c0c0c" d="M1006 245l-32 4 16 16z"/><path stroke-linejoin="round" stroke-miterlimit="1" fill="#0e0e0e" stroke="#0e0e0e" d="M959 902l-171 21-22 49z"/><path stroke-linejoin="round" stroke-miterlimit="1" fill="#191c1b" stroke="#191c1b" d="M990 265l-16-16-3 131z"/><path stroke-linejoin="round" stroke-miterlimit="1" fill="#0e0e0e" stroke="#0e0e0e" d="M935 597l-112 36 83 152z"/><path stroke-linejoin="round" stroke-miterlimit="1" fill="#0c0c0c" stroke="#0c0c0c" d="M985 875l-79-90 53 117z"/><path stroke-linejoin="round" stroke-miterlimit="1" fill="#0f1010" stroke="#0f1010" d="M974 249L640 380h331z"/><path stroke-linejoin="round" stroke-miterlimit="1" fill="#101010" stroke="#101010" d="M971 380l-309 43 155 87z"/><path stroke-linejoin="round" stroke-miterlimit="1" fill="#121212" stroke="#121212" d="M971 380H640l22 43z"/><path stroke-linejoin="round" stroke-miterlimit="1" fill="#0f0f0f" stroke="#0f0f0f" d="M974 249L750 105 614 293z"/><path stroke-linejoin="round" stroke-miterlimit="1" fill="#0e0e0e" stroke="#0e0e0e" d="M974 249l-360 44 26 87zm-3 131L817 510l50 2z"/><path stroke-linejoin="round" stroke-miterlimit="1" fill="#0e0f0f" stroke="#0e0f0f" d="M959 902l-53-117-118 138z"/><path stroke-linejoin="round" stroke-miterlimit="1" fill="#101010" stroke="#101010" d="M935 597l-68-85-44 121z"/><path stroke-linejoin="round" stroke-miterlimit="1" fill="#0d0d0d" stroke="#0d0d0d" d="M906 785l-83-152-35 290z"/><path stroke-linejoin="round" stroke-miterlimit="1" fill="#0f1010" stroke="#0f1010" d="M766 972l-56 15-42 41z"/><path stroke-linejoin="round" stroke-miterlimit="1" fill="#0f0f0f" stroke="#0f0f0f" d="M823 633L598 831l190 92z"/><path stroke-linejoin="round" stroke-miterlimit="1" fill="#111212" stroke="#111212" d="M867 512l-50-2 6 123z"/><path stroke-linejoin="round" stroke-miterlimit="1" fill="#101111" stroke="#101111" d="M849 27l-107 7 8 71z"/><path stroke-linejoin="round" stroke-miterlimit="1" fill="#0c0c0c" stroke="#0c0c0c" d="M859-33l-15-16 5 76z"/><path stroke-linejoin="round" stroke-miterlimit="1" fill="#0f0f0f" stroke="#0f0f0f" d="M823 633l-230-1 5 199z"/><path stroke-linejoin="round" stroke-miterlimit="1" fill="#0d0d0d" stroke="#0d0d0d" d="M844-49L614 1l128 33z"/><path stroke-linejoin="round" stroke-miterlimit="1" fill="#0e0e0e" stroke="#0e0e0e" d="M849 27l-5-76-102 83z"/><path stroke-linejoin="round" stroke-miterlimit="1" fill="#101010" stroke="#101010" d="M823 633l-6-123-143 23z"/><path stroke-linejoin="round" stroke-miterlimit="1" fill="#0f1010" stroke="#0f1010" d="M817 510l-155-87 12 110z"/><path stroke-linejoin="round" stroke-miterlimit="1" fill="#101111" stroke="#101111" d="M823 633L674 533l-81 99z"/><path stroke-linejoin="round" stroke-miterlimit="1" fill="#0f0f0f" stroke="#0f0f0f" d="M788 923l-78 64 56-15z"/><path stroke-linejoin="round" stroke-miterlimit="1" fill="#0e0e0e" stroke="#0e0e0e" d="M788 923l-190-92 112 156z"/><path stroke-linejoin="round" stroke-miterlimit="1" fill="#0f100f" stroke="#0f100f" d="M750 105l-212 64 76 124z"/><path stroke-linejoin="round" stroke-miterlimit="1" fill="#0e0e0e" stroke="#0e0e0e" d="M750 105l-8-71L614 1z"/><path stroke-linejoin="round" stroke-miterlimit="1" fill="#0d0d0d" stroke="#0d0d0d" d="M750 105L614 1l-49 75z"/><path stroke-linejoin="round" stroke-miterlimit="1" fill="#0f1010" stroke="#0f1010" d="M750 105L565 76l-27 93z"/><path stroke-linejoin="round" stroke-miterlimit="1" fill="#121212" stroke="#121212" d="M710 987L598 831l70 197z"/><path stroke-linejoin="round" stroke-miterlimit="1" fill="#0c0c0c" stroke="#0c0c0c" d="M668 1028l-70-197-142 94z"/><path stroke-linejoin="round" stroke-miterlimit="1" fill="#0f1010" stroke="#0f1010" d="M674 533l-12-110-143 141z"/><path stroke-linejoin="round" stroke-miterlimit="1" fill="#111212" stroke="#111212" d="M674 533l-155 31 74 68z"/><path stroke-linejoin="round" stroke-miterlimit="1" fill="#0d0d0d" stroke="#0d0d0d" d="M598 831l-5-199-127 108z"/><path stroke-linejoin="round" stroke-miterlimit="1" fill="#111" stroke="#111" d="M662 423l-88-57-73 25z"/><path stroke-linejoin="round" stroke-miterlimit="1" fill="#0f1010" stroke="#0f1010" d="M662 423l-161-32 18 173z"/><path stroke-linejoin="round" stroke-miterlimit="1" fill="#0c0c0c" stroke="#0c0c0c" d="M668 1028L456 925l-58 125z"/><path stroke-linejoin="round" stroke-miterlimit="1" fill="#101010" stroke="#101010" d="M662 423l-22-43-66-14z"/><path stroke-linejoin="round" stroke-miterlimit="1" fill="#0e0f0f" stroke="#0e0f0f" d="M640 380l-26-87-40 73z"/><path stroke-linejoin="round" stroke-miterlimit="1" fill="#161717" stroke="#161717" d="M614 1l-68 51 19 24z"/><path stroke-linejoin="round" stroke-miterlimit="1" fill="#0e0e0e" stroke="#0e0e0e" d="M614 1L465-53l81 105z"/><path stroke-linejoin="round" stroke-miterlimit="1" fill="#181a19" stroke="#181a19" d="M614 293l-113 98 73-25z"/><path stroke-linejoin="round" stroke-miterlimit="1" fill="#0e0e0e" stroke="#0e0e0e" d="M614 293l-76-124-37 222z"/><path stroke-linejoin="round" stroke-miterlimit="1" fill="#101111" stroke="#101111" d="M538 169L401 361l100 30z"/><path stroke-linejoin="round" stroke-miterlimit="1" fill="#0e0e0e" stroke="#0e0e0e" d="M598 831l-132-91-10 185zm-248 211l-421-56-139 64z"/><path stroke-linejoin="round" stroke-miterlimit="1" fill="#101010" stroke="#101010" d="M593 632l-74-68-53 176z"/><path stroke-linejoin="round" stroke-miterlimit="1" fill="#111" stroke="#111" d="M538 169l-107-20-30 212z"/><path stroke-linejoin="round" stroke-miterlimit="1" fill="#0d0d0d" stroke="#0d0d0d" d="M431 149l-89 129 59 83z"/><path stroke-linejoin="round" stroke-miterlimit="1" fill="#0c0c0c" stroke="#0c0c0c" d="M519 564l-62 175 9 1z"/><path stroke-linejoin="round" stroke-miterlimit="1" fill="#0f1010" stroke="#0f1010" d="M546 52L465-53l-22 83z"/><path stroke-linejoin="round" stroke-miterlimit="1" fill="#0d0d0d" stroke="#0d0d0d" d="M546 52l-115 97 107 20z"/><path stroke-linejoin="round" stroke-miterlimit="1" fill="#141615" stroke="#141615" d="M565 76l-19-24-8 117z"/><path stroke-linejoin="round" stroke-miterlimit="1" fill="#0d0d0d" stroke="#0d0d0d" d="M96-34l-306-19L45-26z"/><path stroke-linejoin="round" stroke-miterlimit="1" fill="#111212" stroke="#111212" d="M519 564L377 690l80 49z"/><path stroke-linejoin="round" stroke-miterlimit="1" fill="#0e0e0e" stroke="#0e0e0e" d="M519 564l-18-173-176 90z"/><path stroke-linejoin="round" stroke-miterlimit="1" fill="#0c0c0c" stroke="#0c0c0c" d="M546 52L443 30l-12 119z"/><path stroke-linejoin="round" stroke-miterlimit="1" fill="#101010" stroke="#101010" d="M350 1042L23 962l-94 24z"/><path stroke-linejoin="round" stroke-miterlimit="1" fill="#181a1a" stroke="#181a1a" d="M466 740l-9-1-1 186z"/><path stroke-linejoin="round" stroke-miterlimit="1" fill="#101111" stroke="#101111" d="M457 739l-75 4 74 182zm44-348l-100-30-76 120z"/><path stroke-linejoin="round" stroke-miterlimit="1" fill="#0e0e0e" stroke="#0e0e0e" d="M519 564l-194-83 52 209z"/><path stroke-linejoin="round" stroke-miterlimit="1" fill="#0f0f0f" stroke="#0f0f0f" d="M456 925l-74-182-46 169z"/><path stroke-linejoin="round" stroke-miterlimit="1" fill="#0e0e0e" stroke="#0e0e0e" d="M443 30l-82 54 70 65z"/><path stroke-linejoin="round" stroke-miterlimit="1" fill="#0d0d0d" stroke="#0d0d0d" d="M456 925l-120-13 62 138z"/><path stroke-linejoin="round" stroke-miterlimit="1" fill="#0f0f0f" stroke="#0f0f0f" d="M465-53h-94l72 83z"/><path stroke-linejoin="round" stroke-miterlimit="1" fill="#0c0c0c" stroke="#0c0c0c" d="M398 1050l-62-138 14 130z"/><path stroke-linejoin="round" stroke-miterlimit="1" fill="#0f0f0f" stroke="#0f0f0f" d="M457 739l-80-49 5 53zm-56-378l-55 6-21 114z"/><path stroke-linejoin="round" stroke-miterlimit="1" fill="#191b1a" stroke="#191b1a" d="M371-53L338 75l23 9z"/><path stroke-linejoin="round" stroke-miterlimit="1" fill="#0c0c0c" stroke="#0c0c0c" d="M377 690l-52-209-75 51z"/><path stroke-linejoin="round" stroke-miterlimit="1" fill="#0d0e0e" stroke="#0d0e0e" d="M443 30l-72-83-10 137z"/><path stroke-linejoin="round" stroke-miterlimit="1" fill="#0e0e0e" stroke="#0e0e0e" d="M431 149l-70-65-87 40zm0 0l-157-25 68 154z"/><path stroke-linejoin="round" stroke-miterlimit="1" fill="#0e0f0f" stroke="#0e0f0f" d="M371-53l-88 83 55 45z"/><path stroke-linejoin="round" stroke-miterlimit="1" fill="#0d0d0d" stroke="#0d0d0d" d="M377 690L250 532v154z"/><path stroke-linejoin="round" stroke-miterlimit="1" fill="#131414" stroke="#131414" d="M382 743l-5-53-23 44z"/><path stroke-linejoin="round" stroke-miterlimit="1" fill="#0f0f0f" stroke="#0f0f0f" d="M382 743l-28-9-18 178zm19-382l-59-83 4 89z"/><path stroke-linejoin="round" stroke-miterlimit="1" fill="#0d0d0d" stroke="#0d0d0d" d="M354 734l-198 56 180 122z"/><path stroke-linejoin="round" stroke-miterlimit="1" fill="#161818" stroke="#161818" d="M361 84l-23-9-64 49z"/><path stroke-linejoin="round" stroke-miterlimit="1" fill="#0c0c0c" stroke="#0c0c0c" d="M346 367l-4-89-30 84z"/><path stroke-linejoin="round" stroke-miterlimit="1" fill="#101111" stroke="#101111" d="M346 367l-34-5 13 119z"/><path stroke-linejoin="round" stroke-miterlimit="1" fill="#0e0e0e" stroke="#0e0e0e" d="M377 690l-127-4 104 48z"/><path stroke-linejoin="round" stroke-miterlimit="1" fill="#0d0e0e" stroke="#0d0e0e" d="M342 278l-68-154-63 125z"/><path stroke-linejoin="round" stroke-miterlimit="1" fill="#0e0e0e" stroke="#0e0e0e" d="M354 734l-104-48-94 104z"/><path stroke-linejoin="round" stroke-miterlimit="1" fill="#0f0f0f" stroke="#0f0f0f" d="M371-53H225l58 83zm-21 1095l-14-130-212-28z"/><path stroke-linejoin="round" stroke-miterlimit="1" fill="#141515" stroke="#141515" d="M350 1042L124 884l-29 22z"/><path stroke-linejoin="round" stroke-miterlimit="1" fill="#0f1010" stroke="#0f1010" d="M350 1042L95 906l-72 56z"/><path stroke-linejoin="round" stroke-miterlimit="1" fill="#0e0f0e" stroke="#0e0f0e" d="M250 532l-48 118 48 36z"/><path stroke-linejoin="round" stroke-miterlimit="1" fill="#0e0e0e" stroke="#0e0e0e" d="M336 912L156 790l-32 94z"/><path stroke-linejoin="round" stroke-miterlimit="1" fill="#0f0f0f" stroke="#0f0f0f" d="M342 278l-131-29 101 113z"/><path stroke-linejoin="round" stroke-miterlimit="1" fill="#101110" stroke="#101110" d="M325 481l-13-119-62 170z"/><path stroke-linejoin="round" stroke-miterlimit="1" fill="#0e0e0e" stroke="#0e0e0e" d="M338 75l-55-45-9 94z"/><path stroke-linejoin="round" stroke-miterlimit="1" fill="#0d0d0d" stroke="#0d0d0d" d="M312 362L99 488l151 44z"/><path stroke-linejoin="round" stroke-miterlimit="1" fill="#0f0f0f" stroke="#0f0f0f" d="M312 362L211 249l-70 16z"/><path stroke-linejoin="round" stroke-miterlimit="1" fill="#0d0d0d" stroke="#0d0d0d" d="M312 362l-171-97-42 223z"/><path stroke-linejoin="round" stroke-miterlimit="1" fill="#0f0f0f" stroke="#0f0f0f" d="M274 124l-124 3 61 122z"/><path stroke-linejoin="round" stroke-miterlimit="1" fill="#111212" stroke="#111212" d="M283 30l-133 97 124-3z"/><path stroke-linejoin="round" stroke-miterlimit="1" fill="#0d0d0d" stroke="#0d0d0d" d="M283 30l-58-83-75 180z"/><path stroke-linejoin="round" stroke-miterlimit="1" fill="#0f1010" stroke="#0f1010" d="M225-53L96-34l54 161z"/><path stroke-linejoin="round" stroke-miterlimit="1" fill="#0d0e0e" stroke="#0d0e0e" d="M250 686l-48-36-46 140z"/><path stroke-linejoin="round" stroke-miterlimit="1" fill="#0d0d0d" stroke="#0d0d0d" d="M250 532L91 592l111 58z"/><path stroke-linejoin="round" stroke-miterlimit="1" fill="#0d0d0d" stroke="#0d0d0d" d="M250 532L99 488l-8 104z"/><path stroke-linejoin="round" stroke-miterlimit="1" fill="#0c0c0c" stroke="#0c0c0c" d="M141 265L0 361l99 127z"/><path stroke-linejoin="round" stroke-miterlimit="1" fill="#0d0d0d" stroke="#0d0d0d" d="M150 127l-60 65 51 73z"/><path stroke-linejoin="round" stroke-miterlimit="1" fill="#101111" stroke="#101111" d="M211 249l-61-122-9 138z"/><path stroke-linejoin="round" stroke-miterlimit="1" fill="#0c0c0c" stroke="#0c0c0c" d="M150 127L96-34 47 16z"/><path stroke-linejoin="round" stroke-miterlimit="1" fill="#0e0e0e" stroke="#0e0e0e" d="M202 650L48 764l108 26z"/><path stroke-linejoin="round" stroke-miterlimit="1" fill="#0c0d0d" stroke="#0c0d0d" d="M202 650L60 614 48 764z"/><path stroke-linejoin="round" stroke-miterlimit="1" fill="#0c0c0c" stroke="#0c0c0c" d="M202 650L91 592l-31 22zM60 614l-50 82 38 68zm96 176L27 807l26 60z"/><path stroke-linejoin="round" stroke-miterlimit="1" fill="#0c0c0c" stroke="#0c0c0c" d="M156 790L48 764l-21 43zm0 0L53 867l71 17z"/><path stroke-linejoin="round" stroke-miterlimit="1" fill="#111" stroke="#111" d="M150 127L47 16l43 176z"/><path stroke-linejoin="round" stroke-miterlimit="1" fill="#0e0e0e" stroke="#0e0e0e" d="M141 265l-51-73L0 361z"/><path stroke-linejoin="round" stroke-miterlimit="1" fill="#0d0d0d" stroke="#0d0d0d" d="M90 192L47 16l-87 151z"/><path stroke-linejoin="round" stroke-miterlimit="1" fill="#0c0c0c" stroke="#0c0c0c" d="M124 884l-71-17 42 39z"/><path stroke-linejoin="round" stroke-miterlimit="1" fill="#0e0e0e" stroke="#0e0e0e" d="M90 192l-130-25L0 361z"/><path stroke-linejoin="round" stroke-miterlimit="1" fill="#131413" stroke="#131413" d="M96-34l-51 8 2 42z"/><path stroke-linejoin="round" stroke-miterlimit="1" fill="#0c0c0c" stroke="#0c0c0c" d="M99 488l-309 11L60 614z"/><path stroke-linejoin="round" stroke-miterlimit="1" fill="#0e0e0e" stroke="#0e0e0e" d="M99 488L0 361l-210 138z"/><path stroke-linejoin="round" stroke-miterlimit="1" fill="#161817" stroke="#161817" d="M99 488L60 614l31-22z"/><path stroke-linejoin="round" stroke-miterlimit="1" fill="#0e0e0e" stroke="#0e0e0e" d="M95 906l-42-39-30 95z"/><path stroke-linejoin="round" stroke-miterlimit="1" fill="#0d0d0d" stroke="#0d0d0d" d="M0 361l-201 86-9 52z"/><path stroke-linejoin="round" stroke-miterlimit="1" fill="#0c0c0c" stroke="#0c0c0c" d="M48 764l-38-68 24 72z"/><path stroke-linejoin="round" stroke-miterlimit="1" fill="#0c0c0c" stroke="#0c0c0c" d="M48 764l-14 4-7 39z"/><path stroke-linejoin="round" stroke-miterlimit="1" fill="#0e0e0e" stroke="#0e0e0e" d="M53 867l-93 15 63 80z"/><path stroke-linejoin="round" stroke-miterlimit="1" fill="#0f0f0f" stroke="#0f0f0f" d="M60 614l-198 71 148 11z"/><path stroke-linejoin="round" stroke-miterlimit="1" fill="#0d0e0e" stroke="#0d0e0e" d="M60 614l-270-115 72 186z"/><path stroke-linejoin="round" stroke-miterlimit="1" fill="#0f0f0f" stroke="#0f0f0f" d="M47 16l-211 17 124 134z"/><path stroke-linejoin="round" stroke-miterlimit="1" fill="#0e0f0f" stroke="#0e0f0f" d="M53 867l-26-60-67 75z"/><path stroke-linejoin="round" stroke-miterlimit="1" fill="#0e0e0e" stroke="#0e0e0e" d="M0 361l-40-194-70 18z"/><path stroke-linejoin="round" stroke-miterlimit="1" fill="#0d0d0d" stroke="#0d0d0d" d="M45-26l-255-27 46 86z"/><path stroke-linejoin="round" stroke-miterlimit="1" fill="#0e0e0e" stroke="#0e0e0e" d="M47 16l-2-42-209 59z"/><path stroke-linejoin="round" stroke-miterlimit="1" fill="#0f1010" stroke="#0f1010" d="M34 768l-24-72-47 31z"/><path stroke-linejoin="round" stroke-miterlimit="1" fill="#0c0c0c" stroke="#0c0c0c" d="M0 361l-110-176-46 150z"/><path stroke-linejoin="round" stroke-miterlimit="1" fill="#101111" stroke="#101111" d="M34 768l-71-41 64 80z"/><path stroke-linejoin="round" stroke-miterlimit="1" fill="#0c0c0c" stroke="#0c0c0c" d="M10 696l-148-11 101 42z"/><path stroke-linejoin="round" stroke-miterlimit="1" fill="#111211" stroke="#111211" d="M23 962l-63-80-31 104z"/><path stroke-linejoin="round" stroke-miterlimit="1" fill="#0d0d0d" stroke="#0d0d0d" d="M27 807l-64-80-3 155z"/><path stroke-linejoin="round" stroke-miterlimit="1" fill="#0f0f0f" stroke="#0f0f0f" d="M0 361l-184 7-17 79z"/><path stroke-linejoin="round" stroke-miterlimit="1" fill="#0c0c0c" stroke="#0c0c0c" d="M0 361l-156-26-28 33zm-71 625l-64-8-75 72z"/><path stroke-linejoin="round" stroke-miterlimit="1" fill="#0d0d0d" stroke="#0d0d0d" d="M-40 882l-95 96 64 8z"/><path stroke-linejoin="round" stroke-miterlimit="1" fill="#0f0f0f" stroke="#0f0f0f" d="M-40 167L-164 33l54 152z"/><path stroke-linejoin="round" stroke-miterlimit="1" fill="#0d0d0d" stroke="#0d0d0d" d="M-37 727l-173 146 170 9z"/><path stroke-linejoin="round" stroke-miterlimit="1" fill="#0c0c0c" stroke="#0c0c0c" d="M-37 727l-101-42-72 188z"/><path stroke-linejoin="round" stroke-miterlimit="1" fill="#0d0d0d" stroke="#0d0d0d" d="M-40 882l-170-9 75 105zm-70-697l-54-152-46 142z"/><path stroke-linejoin="round" stroke-miterlimit="1" fill="#161817" stroke="#161817" d="M-164 33l-46 7v135z"/><path stroke-linejoin="round" stroke-miterlimit="1" fill="#111212" stroke="#111212" d="M-164 33l-46-86v46z"/><path stroke-linejoin="round" stroke-miterlimit="1" fill="#0e0e0e" stroke="#0e0e0e" d="M-156 335l-54-160v151z"/><path stroke-linejoin="round" stroke-miterlimit="1" fill="#0c0c0c" stroke="#0c0c0c" d="M-110 185l-100-10 54 160zm-74 183l-26 15 9 64z"/><path stroke-linejoin="round" stroke-miterlimit="1" fill="#101111" stroke="#101111" d="M-135 978l-75-105v177z"/><path stroke-linejoin="round" stroke-miterlimit="1" fill="#0f1010" stroke="#0f1010" d="M-138 685l-72-186v374z"/><path stroke-linejoin="round" stroke-miterlimit="1" fill="#0e0f0f" stroke="#0e0f0f" d="M-156 335l-54-9 26 42z"/><path stroke-linejoin="round" stroke-miterlimit="1" fill="#0c0c0c" stroke="#0c0c0c" d="M-164 33l-46 1v6z"/><path stroke-linejoin="round" stroke-miterlimit="1" fill="#0c0c0c" stroke="#0c0c0c" d="M-164 33l-46-40v41z"/><path stroke-linejoin="round" stroke-miterlimit="1" fill="#111212" stroke="#111212" d="M-184 368l-26-42v57z"/><path stroke-linejoin="round" stroke-miterlimit="1" fill="#0c0c0c" stroke="#0c0c0c" d="M-201 447l-9-64v116z"/></svg>