<svg xmlns="http://www.w3.org/2000/svg" width="2000" height="1000" display="block"><path stroke-linejoin="round" stroke-miterlimit="1" fill="#0c0c0c" stroke="#0c0c0c" d="M959 1050l-52-4-272 4zM1593-9l-258-22 150 23zm219 1059l-403-7-42 7z"/><path stroke-linejoin="round" stroke-miterlimit="1" fill="#0c0c0c" stroke="#0c0c0c" d="M1812 1050l-356-17-47 10zm71-1094l-882-9 334 22z"/><path stroke-linejoin="round" stroke-miterlimit="1" fill="#131414" stroke="#131414" d="M1883-44l-548 13 258 22z"/><path stroke-linejoin="round" stroke-miterlimit="1" fill="#141515" stroke="#141515" d="M2134-53H1001l882 9z"/><path stroke-linejoin="round" stroke-miterlimit="1" fill="#131313" stroke="#131313" d="M2156 1018l-100-29-244 61z"/><path stroke-linejoin="round" stroke-miterlimit="1" fill="#0c0c0c" stroke="#0c0c0c" d="M2206 82l-48-59-132-21z"/><path stroke-linejoin="round" stroke-miterlimit="1" fill="#0d0d0d" stroke="#0d0d0d" d="M2206 82L2026 2l122 276z"/><path stroke-linejoin="round" stroke-miterlimit="1" fill="#0c0c0c" stroke="#0c0c0c" d="M2213 1050l-57-32-344 32z"/><path stroke-linejoin="round" stroke-miterlimit="1" fill="#0c0c0d" stroke="#0c0c0d" d="M2213 1050v-47l-57 15z"/><path stroke-linejoin="round" stroke-miterlimit="1" fill="#0f1010" stroke="#0f1010" d="M2213 17l-55 6 48 59zm0 407l-103-35 11 59z"/><path stroke-linejoin="round" stroke-miterlimit="1" fill="#0e0e0e" stroke="#0e0e0e" d="M2213 424l-92 24 7 33z"/><path stroke-linejoin="round" stroke-miterlimit="1" fill="#0e0f0f" stroke="#0e0f0f" d="M2213-53l-55 76 55-6z"/><path stroke-linejoin="round" stroke-miterlimit="1" fill="#0e0f0f" stroke="#0e0f0f" d="M2213-53h-74l19 76z"/><path stroke-linejoin="round" stroke-miterlimit="1" fill="#0f100f" stroke="#0f100f" d="M2213 588l-19-44-191 57z"/><path stroke-linejoin="round" stroke-miterlimit="1" fill="#0e0e0f" stroke="#0e0e0f" d="M2213 588l-210 13 99 194z"/><path stroke-linejoin="round" stroke-miterlimit="1" fill="#0e0e0e" stroke="#0e0e0e" d="M2213 588l-111 207 34 77zm0 348l-57 82 57-15z"/><path stroke-linejoin="round" stroke-miterlimit="1" fill="#0c0c0c" stroke="#0c0c0c" d="M2213 936l-77-64 20 146z"/><path stroke-linejoin="round" stroke-miterlimit="1" fill="#101111" stroke="#101111" d="M2213 936V588l-77 284z"/><path stroke-linejoin="round" stroke-miterlimit="1" fill="#0e0e0e" stroke="#0e0e0e" d="M2213 257l-7-175-58 196z"/><path stroke-linejoin="round" stroke-miterlimit="1" fill="#181b1a" stroke="#181b1a" d="M2213 257V17l-7 65z"/><path stroke-linejoin="round" stroke-miterlimit="1" fill="#111" stroke="#111" d="M2213 363l-103 26 103 35z"/><path stroke-linejoin="round" stroke-miterlimit="1" fill="#0f0f0f" stroke="#0f0f0f" d="M2213 363l-65-85-38 111z"/><path stroke-linejoin="round" stroke-miterlimit="1" fill="#101111" stroke="#101111" d="M2213 363V257l-65 21z"/><path stroke-linejoin="round" stroke-miterlimit="1" fill="#0f100f" stroke="#0f100f" d="M2213 499v-75l-85 57z"/><path stroke-linejoin="round" stroke-miterlimit="1" fill="#111212" stroke="#111212" d="M2213 499l-85-18 66 63z"/><path stroke-linejoin="round" stroke-miterlimit="1" fill="#0f1010" stroke="#0f1010" d="M2213 499l-19 45 19 44z"/><path stroke-linejoin="round" stroke-miterlimit="1" fill="#0d0e0e" stroke="#0d0e0e" d="M2148 278L2026 2l-27 297z"/><path stroke-linejoin="round" stroke-miterlimit="1" fill="#0c0c0c" stroke="#0c0c0c" d="M2148 278l-53 94 15 17z"/><path stroke-linejoin="round" stroke-miterlimit="1" fill="#0e0e0e" stroke="#0e0e0e" d="M2156 1018l-20-146-80 117z"/><path stroke-linejoin="round" stroke-miterlimit="1" fill="#0e0f0f" stroke="#0e0f0f" d="M2194 544l-66-63-125 120z"/><path stroke-linejoin="round" stroke-miterlimit="1" fill="#0c0c0c" stroke="#0c0c0c" d="M1812 1050l-206-38-150 21z"/><path stroke-linejoin="round" stroke-miterlimit="1" fill="#0f0f0f" stroke="#0f0f0f" d="M2102 795l-99-194 59 195z"/><path stroke-linejoin="round" stroke-miterlimit="1" fill="#0d0d0d" stroke="#0d0d0d" d="M2128 481l-24-8-101 128z"/><path stroke-linejoin="round" stroke-miterlimit="1" fill="#0e0e0e" stroke="#0e0e0e" d="M2134-53l-251 9 143 46zm2 925l-106 8 26 109z"/><path stroke-linejoin="round" stroke-miterlimit="1" fill="#1e2120" stroke="#1e2120" d="M2158 23l-19-76h-5z"/><path stroke-linejoin="round" stroke-miterlimit="1" fill="#0e0e0e" stroke="#0e0e0e" d="M2158 23l-24-76-108 55zM2026 2l-176 165 149 132zm122 276l-149 21 96 73z"/><path stroke-linejoin="round" stroke-miterlimit="1" fill="#111" stroke="#111" d="M2062 796l-59-195-62 93z"/><path stroke-linejoin="round" stroke-miterlimit="1" fill="#0f1010" stroke="#0f1010" d="M2136 872l-34-77-40 1z"/><path stroke-linejoin="round" stroke-miterlimit="1" fill="#111212" stroke="#111212" d="M2136 872l-74-76-32 84z"/><path stroke-linejoin="round" stroke-miterlimit="1" fill="#0c0c0c" stroke="#0c0c0c" d="M2128 481l-7-33-17 25z"/><path stroke-linejoin="round" stroke-miterlimit="1" fill="#101111" stroke="#101111" d="M2104 473l-136 70 35 58z"/><path stroke-linejoin="round" stroke-miterlimit="1" fill="#0f0f0f" stroke="#0f0f0f" d="M2062 796l-37 28 5 56z"/><path stroke-linejoin="round" stroke-miterlimit="1" fill="#0d0d0d" stroke="#0d0d0d" d="M2110 389l-15-17 9 101z"/><path stroke-linejoin="round" stroke-miterlimit="1" fill="#161817" stroke="#161817" d="M2121 448l-11-59-6 84z"/><path stroke-linejoin="round" stroke-miterlimit="1" fill="#151616" stroke="#151616" d="M2003 601l-43 29-19 64z"/><path stroke-linejoin="round" stroke-miterlimit="1" fill="#0e0e0e" stroke="#0e0e0e" d="M2104 473l-9-101-108 18z"/><path stroke-linejoin="round" stroke-miterlimit="1" fill="#0e0e0e" stroke="#0e0e0e" d="M2104 473l-117-83-19 153zm-9-101l-96-73-12 91z"/><path stroke-linejoin="round" stroke-miterlimit="1" fill="#0d0e0d" stroke="#0d0e0d" d="M2026 2l-188 146 12 19z"/><path stroke-linejoin="round" stroke-miterlimit="1" fill="#0f0f0f" stroke="#0f0f0f" d="M2056 989l-75-71-169 132z"/><path stroke-linejoin="round" stroke-miterlimit="1" fill="#0e0e0e" stroke="#0e0e0e" d="M2056 989l-26-109-49 38z"/><path stroke-linejoin="round" stroke-miterlimit="1" fill="#101010" stroke="#101010" d="M2062 796l-121-102 84 130z"/><path stroke-linejoin="round" stroke-miterlimit="1" fill="#0d0d0d" stroke="#0d0d0d" d="M1987 390l-46 12 27 141z"/><path stroke-linejoin="round" stroke-miterlimit="1" fill="#111212" stroke="#111212" d="M2025 824l-84-130-92 107z"/><path stroke-linejoin="round" stroke-miterlimit="1" fill="#0d0e0e" stroke="#0d0e0e" d="M2026 2l-143-46-45 192z"/><path stroke-linejoin="round" stroke-miterlimit="1" fill="#0f0f0f" stroke="#0f0f0f" d="M2030 880l-5-56-44 94z"/><path stroke-linejoin="round" stroke-miterlimit="1" fill="#101111" stroke="#101111" d="M2025 824l-176-23 132 117z"/><path stroke-linejoin="round" stroke-miterlimit="1" fill="#0c0c0c" stroke="#0c0c0c" d="M1883-44L1593-9l206 6z"/><path stroke-linejoin="round" stroke-miterlimit="1" fill="#111211" stroke="#111211" d="M1968 543l-27-141-57 28z"/><path stroke-linejoin="round" stroke-miterlimit="1" fill="#0f1010" stroke="#0f1010" d="M1999 299l-149-132-35 170z"/><path stroke-linejoin="round" stroke-miterlimit="1" fill="#0f0f0f" stroke="#0f0f0f" d="M1999 299l-58 103 46-12z"/><path stroke-linejoin="round" stroke-miterlimit="1" fill="#101010" stroke="#101010" d="M2003 601l-35-58-8 87z"/><path stroke-linejoin="round" stroke-miterlimit="1" fill="#0f1010" stroke="#0f1010" d="M1999 299l-184 38 126 65z"/><path stroke-linejoin="round" stroke-miterlimit="1" fill="#0e0e0e" stroke="#0e0e0e" d="M1883-44l-84 41 39 151z"/><path stroke-linejoin="round" stroke-miterlimit="1" fill="#121213" stroke="#121213" d="M1981 918l-132-117-37 249z"/><path stroke-linejoin="round" stroke-miterlimit="1" fill="#101111" stroke="#101111" d="M1941 694l-53-14-39 121z"/><path stroke-linejoin="round" stroke-miterlimit="1" fill="#121313" stroke="#121313" d="M1968 543l-170 125 90 12z"/><path stroke-linejoin="round" stroke-miterlimit="1" fill="#111212" stroke="#111212" d="M1968 543l-223-12 53 137z"/><path stroke-linejoin="round" stroke-miterlimit="1" fill="#0e0e0e" stroke="#0e0e0e" d="M1968 543l-80 137 72-50z"/><path stroke-linejoin="round" stroke-miterlimit="1" fill="#0f1010" stroke="#0f1010" d="M1968 543l-84-113-139 101z"/><path stroke-linejoin="round" stroke-miterlimit="1" fill="#141515" stroke="#141515" d="M1960 630l-72 50 53 14z"/><path stroke-linejoin="round" stroke-miterlimit="1" fill="#101110" stroke="#101110" d="M1941 402l-126-65 69 93z"/><path stroke-linejoin="round" stroke-miterlimit="1" fill="#161717" stroke="#161717" d="M1849 801l-154 15 117 234z"/><path stroke-linejoin="round" stroke-miterlimit="1" fill="#131414" stroke="#131414" d="M1888 680l-85 81 46 40z"/><path stroke-linejoin="round" stroke-miterlimit="1" fill="#141515" stroke="#141515" d="M1888 680l-90-12 5 93z"/><path stroke-linejoin="round" stroke-miterlimit="1" fill="#111212" stroke="#111212" d="M1884 430l-69-93-95 36z"/><path stroke-linejoin="round" stroke-miterlimit="1" fill="#111211" stroke="#111211" d="M1884 430l-164-57 25 158z"/><path stroke-linejoin="round" stroke-miterlimit="1" fill="#0f0f0f" stroke="#0f0f0f" d="M1850 167l-110-15 75 185z"/><path stroke-linejoin="round" stroke-miterlimit="1" fill="#121213" stroke="#121213" d="M1695 816l-98 176 9 20z"/><path stroke-linejoin="round" stroke-miterlimit="1" fill="#111112" stroke="#111112" d="M1812 1050l-117-234-89 196z"/><path stroke-linejoin="round" stroke-miterlimit="1" fill="#101010" stroke="#101010" d="M1815 337l-75-185-101 112z"/><path stroke-linejoin="round" stroke-miterlimit="1" fill="#0f0f0f" stroke="#0f0f0f" d="M1838 148L1799-3l-59 155z"/><path stroke-linejoin="round" stroke-miterlimit="1" fill="#1a1a1c" stroke="#1a1a1c" d="M1849 801l-46-40-108 55z"/><path stroke-linejoin="round" stroke-miterlimit="1" fill="#0c0c0c" stroke="#0c0c0c" d="M1850 167l-12-19-98 4z"/><path stroke-linejoin="round" stroke-miterlimit="1" fill="#121313" stroke="#121313" d="M1798 668l-53-137-75 72z"/><path stroke-linejoin="round" stroke-miterlimit="1" fill="#101111" stroke="#101111" d="M1815 337l-176-73 81 109z"/><path stroke-linejoin="round" stroke-miterlimit="1" fill="#151616" stroke="#151616" d="M1803 761l-5-93-103 148z"/><path stroke-linejoin="round" stroke-miterlimit="1" fill="#131414" stroke="#131414" d="M1798 668l-128-65 25 213z"/><path stroke-linejoin="round" stroke-miterlimit="1" fill="#0e0e0e" stroke="#0e0e0e" d="M1799-3l-206-6 147 161z"/><path stroke-linejoin="round" stroke-miterlimit="1" fill="#121313" stroke="#121313" d="M1695 816l-25-213-64 39z"/><path stroke-linejoin="round" stroke-miterlimit="1" fill="#151816" stroke="#151816" d="M1720 373l-120 20-23 87z"/><path stroke-linejoin="round" stroke-miterlimit="1" fill="#0e0f0f" stroke="#0e0f0f" d="M1740 152L1593-9l-50 130z"/><path stroke-linejoin="round" stroke-miterlimit="1" fill="#141715" stroke="#141715" d="M1745 531l-25-158-143 107z"/><path stroke-linejoin="round" stroke-miterlimit="1" fill="#131514" stroke="#131514" d="M1745 531l-168-51 93 123z"/><path stroke-linejoin="round" stroke-miterlimit="1" fill="#0e0f0f" stroke="#0e0f0f" d="M1740 152l-197-31 96 143z"/><path stroke-linejoin="round" stroke-miterlimit="1" fill="#121212" stroke="#121212" d="M1695 816l-89-174-74 147z"/><path stroke-linejoin="round" stroke-miterlimit="1" fill="#111211" stroke="#111211" d="M1720 373l-81-109-39 129z"/><path stroke-linejoin="round" stroke-miterlimit="1" fill="#111212" stroke="#111212" d="M1695 816l-180 131 82 45z"/><path stroke-linejoin="round" stroke-miterlimit="1" fill="#111" stroke="#111" d="M1695 816l-163-27-17 158z"/><path stroke-linejoin="round" stroke-miterlimit="1" fill="#141515" stroke="#141515" d="M1639 264l-77 97 38 32z"/><path stroke-linejoin="round" stroke-miterlimit="1" fill="#131514" stroke="#131514" d="M1670 603l-93-123 29 162z"/><path stroke-linejoin="round" stroke-miterlimit="1" fill="#0d0d0d" stroke="#0d0d0d" d="M1639 264l-96-143-30 15z"/><path stroke-linejoin="round" stroke-miterlimit="1" fill="#111211" stroke="#111211" d="M1639 264l-126-128-8 168z"/><path stroke-linejoin="round" stroke-miterlimit="1" fill="#101110" stroke="#101110" d="M1639 264l-134 40 57 57z"/><path stroke-linejoin="round" stroke-miterlimit="1" fill="#0d0d0d" stroke="#0d0d0d" d="M1543 121l-57-91 5 59z"/><path stroke-linejoin="round" stroke-miterlimit="1" fill="#0f0f0f" stroke="#0f0f0f" d="M1593-9l-107 39 57 91z"/><path stroke-linejoin="round" stroke-miterlimit="1" fill="#191c1b" stroke="#191c1b" d="M1600 393l-38-32 15 119z"/><path stroke-linejoin="round" stroke-miterlimit="1" fill="#111312" stroke="#111312" d="M1606 642l-29-162-248 157z"/><path stroke-linejoin="round" stroke-miterlimit="1" fill="#101111" stroke="#101111" d="M1606 642l-277-5 203 152z"/><path stroke-linejoin="round" stroke-miterlimit="1" fill="#0e0f0f" stroke="#0e0f0f" d="M1606 1012l-9-20-141 41z"/><path stroke-linejoin="round" stroke-miterlimit="1" fill="#111212" stroke="#111212" d="M1597 992l-82-45-59 86z"/><path stroke-linejoin="round" stroke-miterlimit="1" fill="#0c0c0c" stroke="#0c0c0c" d="M1593-9l-108 1 1 38z"/><path stroke-linejoin="round" stroke-miterlimit="1" fill="#101010" stroke="#101010" d="M1532 789l-68 154 51 4z"/><path stroke-linejoin="round" stroke-miterlimit="1" fill="#131414" stroke="#131414" d="M1577 480l-15-119-243 71z"/><path stroke-linejoin="round" stroke-miterlimit="1" fill="#111211" stroke="#111211" d="M1577 480l-258-48 10 205z"/><path stroke-linejoin="round" stroke-miterlimit="1" fill="#101110" stroke="#101110" d="M1513 136l-23-8 15 176z"/><path stroke-linejoin="round" stroke-miterlimit="1" fill="#0e0f0f" stroke="#0e0f0f" d="M1532 789l-203-152 1 127z"/><path stroke-linejoin="round" stroke-miterlimit="1" fill="#111212" stroke="#111212" d="M1562 361l-57-57-186 128z"/><path stroke-linejoin="round" stroke-miterlimit="1" fill="#0e0f0f" stroke="#0e0f0f" d="M1543 121l-52-32 22 47z"/><path stroke-linejoin="round" stroke-miterlimit="1" fill="#0f1010" stroke="#0f1010" d="M1505 304l-15-176-29-14z"/><path stroke-linejoin="round" stroke-miterlimit="1" fill="#121312" stroke="#121312" d="M1513 136l-22-47-1 39z"/><path stroke-linejoin="round" stroke-miterlimit="1" fill="#101010" stroke="#101010" d="M1515 947l-51-4-8 90z"/><path stroke-linejoin="round" stroke-miterlimit="1" fill="#101111" stroke="#101111" d="M1532 789l-202-25 134 179z"/><path stroke-linejoin="round" stroke-miterlimit="1" fill="#101111" stroke="#101111" d="M1464 943l-134-179 26 173z"/><path stroke-linejoin="round" stroke-miterlimit="1" fill="#0e0f0e" stroke="#0e0f0e" d="M1505 304l-44-190-231 82z"/><path stroke-linejoin="round" stroke-miterlimit="1" fill="#0f0f0f" stroke="#0f0f0f" d="M1505 304l-275-108 89 236z"/><path stroke-linejoin="round" stroke-miterlimit="1" fill="#0c0c0c" stroke="#0c0c0c" d="M1491 89l-30 25 29 14z"/><path stroke-linejoin="round" stroke-miterlimit="1" fill="#0d0d0d" stroke="#0d0d0d" d="M1491 89l-5-59-25 84z"/><path stroke-linejoin="round" stroke-miterlimit="1" fill="#131413" stroke="#131413" d="M1486 30l-1-38-150-23z"/><path stroke-linejoin="round" stroke-miterlimit="1" fill="#101111" stroke="#101111" d="M1486 30l-151-61 126 145z"/><path stroke-linejoin="round" stroke-miterlimit="1" fill="#0f0f0f" stroke="#0f0f0f" d="M1464 943l-55 100 47-10z"/><path stroke-linejoin="round" stroke-miterlimit="1" fill="#0f0f0f" stroke="#0f0f0f" d="M1464 943l-108-6 53 106z"/><path stroke-linejoin="round" stroke-miterlimit="1" fill="#0f1010" stroke="#0f1010" d="M1461 114L1335-31l-132 156z"/><path stroke-linejoin="round" stroke-miterlimit="1" fill="#0f100f" stroke="#0f100f" d="M1461 114l-258 11 27 71z"/><path stroke-linejoin="round" stroke-miterlimit="1" fill="#0f0f0f" stroke="#0f0f0f" d="M1319 432l-89-236-56 94z"/><path stroke-linejoin="round" stroke-miterlimit="1" fill="#0f100f" stroke="#0f100f" d="M1329 637l-10-205-108 146z"/><path stroke-linejoin="round" stroke-miterlimit="1" fill="#0e0e0e" stroke="#0e0e0e" d="M1330 764l-1-127-47 72z"/><path stroke-linejoin="round" stroke-miterlimit="1" fill="#0c0c0c" stroke="#0c0c0c" d="M1335-31l-143 99 11 57z"/><path stroke-linejoin="round" stroke-miterlimit="1" fill="#0f0f0f" stroke="#0f0f0f" d="M1409 1043l-82-77 40 84z"/><path stroke-linejoin="round" stroke-miterlimit="1" fill="#121313" stroke="#121313" d="M1409 1043l-53-106-29 29z"/><path stroke-linejoin="round" stroke-miterlimit="1" fill="#111212" stroke="#111212" d="M1230 196l-51 60-5 34z"/><path stroke-linejoin="round" stroke-miterlimit="1" fill="#101010" stroke="#101010" d="M1319 432l-115 62 7 84z"/><path stroke-linejoin="round" stroke-miterlimit="1" fill="#0e0f0f" stroke="#0e0f0f" d="M1319 432l-145-142 36 131z"/><path stroke-linejoin="round" stroke-miterlimit="1" fill="#0f0f0f" stroke="#0f0f0f" d="M1356 937l-26-173-171 72z"/><path stroke-linejoin="round" stroke-miterlimit="1" fill="#0c0c0c" stroke="#0c0c0c" d="M1356 937l-197-101 168 130z"/><path stroke-linejoin="round" stroke-miterlimit="1" fill="#0e0f0f" stroke="#0e0f0f" d="M1367 1050l-40-84-52 84z"/><path stroke-linejoin="round" stroke-miterlimit="1" fill="#111" stroke="#111" d="M1319 432l-107 12-8 50z"/><path stroke-linejoin="round" stroke-miterlimit="1" fill="#0f0f0f" stroke="#0f0f0f" d="M1330 764l-48-55-123 127z"/><path stroke-linejoin="round" stroke-miterlimit="1" fill="#0d0d0d" stroke="#0d0d0d" d="M1335-31l-334-22 191 121z"/><path stroke-linejoin="round" stroke-miterlimit="1" fill="#0e0f0f" stroke="#0e0f0f" d="M1327 966l-168-130-51 135z"/><path stroke-linejoin="round" stroke-miterlimit="1" fill="#0e0e0e" stroke="#0e0e0e" d="M1329 637l-118-59 71 131z"/><path stroke-linejoin="round" stroke-miterlimit="1" fill="#0e0f0f" stroke="#0e0f0f" d="M1327 966l-219 5 167 79zm-8-534l-109-11 2 23z"/><path stroke-linejoin="round" stroke-miterlimit="1" fill="#0c0c0c" stroke="#0c0c0c" d="M1001-53H731l195 17z"/><path stroke-linejoin="round" stroke-miterlimit="1" fill="#0e0f0e" stroke="#0e0f0e" d="M1275 1050l-167-79-106 79z"/><path stroke-linejoin="round" stroke-miterlimit="1" fill="#0f1010" stroke="#0f1010" d="M1282 709l-71-131-189 154z"/><path stroke-linejoin="round" stroke-miterlimit="1" fill="#0e0f0f" stroke="#0e0f0f" d="M1282 709l-260 23 137 104z"/><path stroke-linejoin="round" stroke-miterlimit="1" fill="#0d0d0d" stroke="#0d0d0d" d="M635 1050l-309-78-508 78z"/><path stroke-linejoin="round" stroke-miterlimit="1" fill="#0f0f0f" stroke="#0f0f0f" d="M1230 196l-27-71-24 131zm-38-128L1001-53l-7 65z"/><path stroke-linejoin="round" stroke-miterlimit="1" fill="#0e0e0e" stroke="#0e0e0e" d="M1210 421l-36-131-181 114zm0 0l-217-17 144 91z"/><path stroke-linejoin="round" stroke-miterlimit="1" fill="#0f0f0f" stroke="#0f0f0f" d="M1211 578l-74-83-178 110z"/><path stroke-linejoin="round" stroke-miterlimit="1" fill="#0e0e0e" stroke="#0e0e0e" d="M1211 578l-252 27 63 127z"/><path stroke-linejoin="round" stroke-miterlimit="1" fill="#0e0f0f" stroke="#0e0f0f" d="M1211 578l-7-84-67 1z"/><path stroke-linejoin="round" stroke-miterlimit="1" fill="#0d0d0d" stroke="#0d0d0d" d="M1212 444l-2-23-73 74z"/><path stroke-linejoin="round" stroke-miterlimit="1" fill="#0f100f" stroke="#0f100f" d="M1212 444l-75 51 67-1z"/><path stroke-linejoin="round" stroke-miterlimit="1" fill="#0e0e0e" stroke="#0e0e0e" d="M1137 495l-107-1-71 111zm66-370L943 282l236-26z"/><path stroke-linejoin="round" stroke-miterlimit="1" fill="#0e0e0e" stroke="#0e0e0e" d="M1203 125L994 12l-51 270z"/><path stroke-linejoin="round" stroke-miterlimit="1" fill="#0f1010" stroke="#0f1010" d="M1203 125l-11-57-198-56z"/><path stroke-linejoin="round" stroke-miterlimit="1" fill="#101110" stroke="#101110" d="M1179 256l-236 26 231 8z"/><path stroke-linejoin="round" stroke-miterlimit="1" fill="#0d0d0d" stroke="#0d0d0d" d="M1137 495l-144-91 37 90zm37-205l-231-8 50 122z"/><path stroke-linejoin="round" stroke-miterlimit="1" fill="#181a1a" stroke="#181a1a" d="M994 12l-17 4-34 266z"/><path stroke-linejoin="round" stroke-miterlimit="1" fill="#0d0d0d" stroke="#0d0d0d" d="M1108 971l-86-239-130 138z"/><path stroke-linejoin="round" stroke-miterlimit="1" fill="#0e0f0e" stroke="#0e0f0e" d="M1159 836l-137-104 86 239z"/><path stroke-linejoin="round" stroke-miterlimit="1" fill="#101010" stroke="#101010" d="M731-53H380l64 17z"/><path stroke-linejoin="round" stroke-miterlimit="1" fill="#0c0c0c" stroke="#0c0c0c" d="M1001-53l-75 17 18-1z"/><path stroke-linejoin="round" stroke-miterlimit="1" fill="#121313" stroke="#121313" d="M1108 971l-107 79h1z"/><path stroke-linejoin="round" stroke-miterlimit="1" fill="#0f1010" stroke="#0f1010" d="M1108 971L892 870l109 180z"/><path stroke-linejoin="round" stroke-miterlimit="1" fill="#0f0f0f" stroke="#0f0f0f" d="M959 1050l-67-180 15 176z"/><path stroke-linejoin="round" stroke-miterlimit="1" fill="#0f1010" stroke="#0f1010" d="M977 16l-73 3 39 263z"/><path stroke-linejoin="round" stroke-miterlimit="1" fill="#101111" stroke="#101111" d="M993 404l-50-122-11 111zm8 646L892 870l67 180z"/><path stroke-linejoin="round" stroke-miterlimit="1" fill="#0e0e0e" stroke="#0e0e0e" d="M1022 732l-129 15-9 100zm0 0L884 847l8 23z"/><path stroke-linejoin="round" stroke-miterlimit="1" fill="#0c0c0c" stroke="#0c0c0c" d="M1022 732l-63-127-66 142z"/><path stroke-linejoin="round" stroke-miterlimit="1" fill="#0d0d0d" stroke="#0d0d0d" d="M1030 494l-57-83-118 100z"/><path stroke-linejoin="round" stroke-miterlimit="1" fill="#0e0e0e" stroke="#0e0e0e" d="M1030 494l-175 17 104 94z"/><path stroke-linejoin="round" stroke-miterlimit="1" fill="#0d0d0d" stroke="#0d0d0d" d="M1030 494l-37-90-20 7z"/><path stroke-linejoin="round" stroke-miterlimit="1" fill="#0e0e0e" stroke="#0e0e0e" d="M943 282L904 19 741 60zm50 122l-61-11 41 18z"/><path stroke-linejoin="round" stroke-miterlimit="1" fill="#0e0f0e" stroke="#0e0f0e" d="M994 12l-50-49 33 53z"/><path stroke-linejoin="round" stroke-miterlimit="1" fill="#0e0f0f" stroke="#0e0f0f" d="M1001-53l-57 16 50 49z"/><path stroke-linejoin="round" stroke-miterlimit="1" fill="#0d0d0d" stroke="#0d0d0d" d="M973 411l-41-18-77 118z"/><path stroke-linejoin="round" stroke-miterlimit="1" fill="#0e0f0e" stroke="#0e0f0e" d="M943 282L741 60l70 268z"/><path stroke-linejoin="round" stroke-miterlimit="1" fill="#101010" stroke="#101010" d="M977 16l-33-53-40 56z"/><path stroke-linejoin="round" stroke-miterlimit="1" fill="#0f0f0f" stroke="#0f0f0f" d="M944-37l-18 1-22 55z"/><path stroke-linejoin="round" stroke-miterlimit="1" fill="#0d0d0d" stroke="#0d0d0d" d="M943 282L838 388l94 5z"/><path stroke-linejoin="round" stroke-miterlimit="1" fill="#0e0e0e" stroke="#0e0e0e" d="M943 282l-132 46 27 60zm16 323l-209 94 143 48z"/><path stroke-linejoin="round" stroke-miterlimit="1" fill="#0e0e0e" stroke="#0e0e0e" d="M959 605l-104-94-105 188z"/><path stroke-linejoin="round" stroke-miterlimit="1" fill="#0d0d0d" stroke="#0d0d0d" d="M932 393l-94-5 17 123z"/><path stroke-linejoin="round" stroke-miterlimit="1" fill="#0f1010" stroke="#0f1010" d="M893 747l-56 38 47 62z"/><path stroke-linejoin="round" stroke-miterlimit="1" fill="#0d0e0d" stroke="#0d0e0d" d="M907 1046l-15-176-101-56z"/><path stroke-linejoin="round" stroke-miterlimit="1" fill="#0e0e0e" stroke="#0e0e0e" d="M907 1046L791 814l-156 236zM926-36L731-53l173 72z"/><path stroke-linejoin="round" stroke-miterlimit="1" fill="#0e0f0f" stroke="#0e0f0f" d="M811 328L741 60l-82 198z"/><path stroke-linejoin="round" stroke-miterlimit="1" fill="#0e0e0e" stroke="#0e0e0e" d="M904 19L731-53l10 113z"/><path stroke-linejoin="round" stroke-miterlimit="1" fill="#0c0c0c" stroke="#0c0c0c" d="M635 1050l-67-34-242-44z"/><path stroke-linejoin="round" stroke-miterlimit="1" fill="#0d0d0d" stroke="#0d0d0d" d="M791 814l-155 52-1 184z"/><path stroke-linejoin="round" stroke-miterlimit="1" fill="#0c0c0c" stroke="#0c0c0c" d="M892 870l-8-23-93-33z"/><path stroke-linejoin="round" stroke-miterlimit="1" fill="#0d0d0d" stroke="#0d0d0d" d="M893 747l-143-48 87 86z"/><path stroke-linejoin="round" stroke-miterlimit="1" fill="#0c0c0c" stroke="#0c0c0c" d="M741 60L635 177l24 81z"/><path stroke-linejoin="round" stroke-miterlimit="1" fill="#0d0e0e" stroke="#0d0e0e" d="M884 847l-47-62-46 29z"/><path stroke-linejoin="round" stroke-miterlimit="1" fill="#0d0d0d" stroke="#0d0d0d" d="M837 785l-87-86-5 26z"/><path stroke-linejoin="round" stroke-miterlimit="1" fill="#101110" stroke="#101110" d="M855 511l-17-123-53-22z"/><path stroke-linejoin="round" stroke-miterlimit="1" fill="#0f0f0f" stroke="#0f0f0f" d="M855 511l-70-145-185 146z"/><path stroke-linejoin="round" stroke-miterlimit="1" fill="#0e0e0e" stroke="#0e0e0e" d="M855 511l-255 1 150 187z"/><path stroke-linejoin="round" stroke-miterlimit="1" fill="#121313" stroke="#121313" d="M741 60l-81 40-25 77z"/><path stroke-linejoin="round" stroke-miterlimit="1" fill="#0c0c0c" stroke="#0c0c0c" d="M837 785l-92-60 46 89z"/><path stroke-linejoin="round" stroke-miterlimit="1" fill="#101111" stroke="#101111" d="M838 388l-27-60-26 38z"/><path stroke-linejoin="round" stroke-miterlimit="1" fill="#0e0e0e" stroke="#0e0e0e" d="M811 328l-152-70 126 108z"/><path stroke-linejoin="round" stroke-miterlimit="1" fill="#151716" stroke="#151716" d="M741 60l-43 4-38 36z"/><path stroke-linejoin="round" stroke-miterlimit="1" fill="#0c0c0c" stroke="#0c0c0c" d="M791 814l-46-89-109 141z"/><path stroke-linejoin="round" stroke-miterlimit="1" fill="#111" stroke="#111" d="M785 366L659 258l-59 254z"/><path stroke-linejoin="round" stroke-miterlimit="1" fill="#0e0f0f" stroke="#0e0f0f" d="M636 866l-36 161 35 23z"/><path stroke-linejoin="round" stroke-miterlimit="1" fill="#0f0f0f" stroke="#0f0f0f" d="M659 258l-100 12 41 242z"/><path stroke-linejoin="round" stroke-miterlimit="1" fill="#0d0e0e" stroke="#0d0e0e" d="M741 60L731-53 698 64z"/><path stroke-linejoin="round" stroke-miterlimit="1" fill="#0f0f0f" stroke="#0f0f0f" d="M750 699l-192-22 187 48z"/><path stroke-linejoin="round" stroke-miterlimit="1" fill="#0c0c0c" stroke="#0c0c0c" d="M750 699L600 512l-42 165z"/><path stroke-linejoin="round" stroke-miterlimit="1" fill="#0d0d0d" stroke="#0d0d0d" d="M731-53L632 54l66 10zm14 778l-187-48 78 189z"/><path stroke-linejoin="round" stroke-miterlimit="1" fill="#0d0d0d" stroke="#0d0d0d" d="M731-53L444-36l188 90z"/><path stroke-linejoin="round" stroke-miterlimit="1" fill="#0f0f0f" stroke="#0f0f0f" d="M600 512l-41-242-72 165z"/><path stroke-linejoin="round" stroke-miterlimit="1" fill="#0e0e0e" stroke="#0e0e0e" d="M698 64l-66-10 28 46z"/><path stroke-linejoin="round" stroke-miterlimit="1" fill="#1c1f1e" stroke="#1c1f1e" d="M635 1050l-35-23-32-11z"/><path stroke-linejoin="round" stroke-miterlimit="1" fill="#0c0c0c" stroke="#0c0c0c" d="M636 866l-68 150 32 11z"/><path stroke-linejoin="round" stroke-miterlimit="1" fill="#0d0d0d" stroke="#0d0d0d" d="M659 258l-24-81-33 20z"/><path stroke-linejoin="round" stroke-miterlimit="1" fill="#0d0d0d" stroke="#0d0d0d" d="M659 258l-57-61-7 6z"/><path stroke-linejoin="round" stroke-miterlimit="1" fill="#0c0c0c" stroke="#0c0c0c" d="M660 100l-73 11 48 66z"/><path stroke-linejoin="round" stroke-miterlimit="1" fill="#0d0d0d" stroke="#0d0d0d" d="M660 100l-28-46-45 57z"/><path stroke-linejoin="round" stroke-miterlimit="1" fill="#0f1010" stroke="#0f1010" d="M659 258l-64-55-36 67z"/><path stroke-linejoin="round" stroke-miterlimit="1" fill="#0d0d0d" stroke="#0d0d0d" d="M558 677l-184 46 72 225z"/><path stroke-linejoin="round" stroke-miterlimit="1" fill="#101010" stroke="#101010" d="M602 197l-15-86-32 62z"/><path stroke-linejoin="round" stroke-miterlimit="1" fill="#0d0d0d" stroke="#0d0d0d" d="M632 54L441 17l146 94z"/><path stroke-linejoin="round" stroke-miterlimit="1" fill="#0d0d0d" stroke="#0d0d0d" d="M632 54L444-36l-3 53z"/><path stroke-linejoin="round" stroke-miterlimit="1" fill="#0c0c0c" stroke="#0c0c0c" d="M635 177l-48-66 15 86z"/><path stroke-linejoin="round" stroke-miterlimit="1" fill="#0d0d0d" stroke="#0d0d0d" d="M636 866l-190 82 122 68z"/><path stroke-linejoin="round" stroke-miterlimit="1" fill="#0e0e0e" stroke="#0e0e0e" d="M636 866l-78-189-112 271z"/><path stroke-linejoin="round" stroke-miterlimit="1" fill="#0d0d0d" stroke="#0d0d0d" d="M587 111L441 17l51 98zM326 972L72 936l-254 114z"/><path stroke-linejoin="round" stroke-miterlimit="1" fill="#0f0f0f" stroke="#0f0f0f" d="M559 270l-113 92 41 73zm9 746l-122-68-120 24z"/><path stroke-linejoin="round" stroke-miterlimit="1" fill="#0c0c0c" stroke="#0c0c0c" d="M595 203l-53-1 17 68z"/><path stroke-linejoin="round" stroke-miterlimit="1" fill="#0e0e0e" stroke="#0e0e0e" d="M600 512l-113-77 71 242z"/><path stroke-linejoin="round" stroke-miterlimit="1" fill="#0d0d0d" stroke="#0d0d0d" d="M602 197l-47-24 40 30z"/><path stroke-linejoin="round" stroke-miterlimit="1" fill="#0e0e0e" stroke="#0e0e0e" d="M558 677l-71-242-149 243z"/><path stroke-linejoin="round" stroke-miterlimit="1" fill="#101010" stroke="#101010" d="M595 203l-40-30-13 29z"/><path stroke-linejoin="round" stroke-miterlimit="1" fill="#0c0c0c" stroke="#0c0c0c" d="M587 111l-95 4 63 58z"/><path stroke-linejoin="round" stroke-miterlimit="1" fill="#0d0e0d" stroke="#0d0e0d" d="M558 677l-220 1 36 45z"/><path stroke-linejoin="round" stroke-miterlimit="1" fill="#0e0e0e" stroke="#0e0e0e" d="M559 270l-17-68-124-30z"/><path stroke-linejoin="round" stroke-miterlimit="1" fill="#0d0d0d" stroke="#0d0d0d" d="M559 270l-141-98 28 190z"/><path stroke-linejoin="round" stroke-miterlimit="1" fill="#0c0c0c" stroke="#0c0c0c" d="M555 173l-63-58 50 87zM429 410l-91 12v256zm58 25l-58-25-91 268z"/><path stroke-linejoin="round" stroke-miterlimit="1" fill="#0c0c0c" stroke="#0c0c0c" d="M542 202l-50-87-74 57z"/><path stroke-linejoin="round" stroke-miterlimit="1" fill="#0d0e0e" stroke="#0d0e0e" d="M446 948l-72-225-76 229z"/><path stroke-linejoin="round" stroke-miterlimit="1" fill="#0c0c0c" stroke="#0c0c0c" d="M487 435l-41-73-17 48z"/><path stroke-linejoin="round" stroke-miterlimit="1" fill="#101010" stroke="#101010" d="M492 115l-51-98-23 155z"/><path stroke-linejoin="round" stroke-miterlimit="1" fill="#0d0d0d" stroke="#0d0d0d" d="M338 422L221 149l-47 199z"/><path stroke-linejoin="round" stroke-miterlimit="1" fill="#101111" stroke="#101111" d="M338 422l-80 237 80 19z"/><path stroke-linejoin="round" stroke-miterlimit="1" fill="#0d0e0e" stroke="#0d0e0e" d="M418 172l-197-23 117 273z"/><path stroke-linejoin="round" stroke-miterlimit="1" fill="#0d0d0d" stroke="#0d0d0d" d="M441 17L221 149l197 23z"/><path stroke-linejoin="round" stroke-miterlimit="1" fill="#0d0d0d" stroke="#0d0d0d" d="M441 17l-76-70-144 202z"/><path stroke-linejoin="round" stroke-miterlimit="1" fill="#0c0c0c" stroke="#0c0c0c" d="M444-36l-64-17 61 70z"/><path stroke-linejoin="round" stroke-miterlimit="1" fill="#0e0e0e" stroke="#0e0e0e" d="M446 948l-148 4 28 20z"/><path stroke-linejoin="round" stroke-miterlimit="1" fill="#0f1010" stroke="#0f1010" d="M446 362l-108 60 91-12z"/><path stroke-linejoin="round" stroke-miterlimit="1" fill="#0d0d0d" stroke="#0d0d0d" d="M446 362l-28-190-80 250zm-5-345l-61-70h-15z"/><path stroke-linejoin="round" stroke-miterlimit="1" fill="#0c0c0c" stroke="#0c0c0c" d="M338 422l-164-74 57 61z"/><path stroke-linejoin="round" stroke-miterlimit="1" fill="#0e0f0f" stroke="#0e0f0f" d="M374 723l-182 51 106 178z"/><path stroke-linejoin="round" stroke-miterlimit="1" fill="#0c0c0c" stroke="#0c0c0c" d="M326 972l-28-20-226-16z"/><path stroke-linejoin="round" stroke-miterlimit="1" fill="#0e0e0e" stroke="#0e0e0e" d="M338 422l-107-13 27 250z"/><path stroke-linejoin="round" stroke-miterlimit="1" fill="#0f1010" stroke="#0f1010" d="M258 659l-27-250-73 41z"/><path stroke-linejoin="round" stroke-miterlimit="1" fill="#0c0c0c" stroke="#0c0c0c" d="M374 723l-36-45-146 96z"/><path stroke-linejoin="round" stroke-miterlimit="1" fill="#0e0e0e" stroke="#0e0e0e" d="M338 678l-80-19-66 115z"/><path stroke-linejoin="round" stroke-miterlimit="1" fill="#0d0d0d" stroke="#0d0d0d" d="M365-53H57l164 202z"/><path stroke-linejoin="round" stroke-miterlimit="1" fill="#0d0d0d" stroke="#0d0d0d" d="M221 149L57-53l33 166zm-29 625L73 848l-1 88z"/><path stroke-linejoin="round" stroke-miterlimit="1" fill="#0c0c0c" stroke="#0c0c0c" d="M258 659L158 450l-43 36z"/><path stroke-linejoin="round" stroke-miterlimit="1" fill="#0c0c0c" stroke="#0c0c0c" d="M258 659L115 486l-39 81zm40 293L192 774 72 936z"/><path stroke-linejoin="round" stroke-miterlimit="1" fill="#0d0d0d" stroke="#0d0d0d" d="M258 659L76 567l102 199z"/><path stroke-linejoin="round" stroke-miterlimit="1" fill="#121313" stroke="#121313" d="M258 659l-80 107 14 8z"/><path stroke-linejoin="round" stroke-miterlimit="1" fill="#0c0c0c" stroke="#0c0c0c" d="M178 766L76 567l7 201z"/><path stroke-linejoin="round" stroke-miterlimit="1" fill="#0d0d0d" stroke="#0d0d0d" d="M221 149L16 191l158 157z"/><path stroke-linejoin="round" stroke-miterlimit="1" fill="#0c0c0c" stroke="#0c0c0c" d="M221 149L90 113l-74 78zm10 260l-57-61-16 102z"/><path stroke-linejoin="round" stroke-miterlimit="1" fill="#151616" stroke="#151616" d="M192 774l-14-8-105 82z"/><path stroke-linejoin="round" stroke-miterlimit="1" fill="#0c0c0c" stroke="#0c0c0c" d="M72 936l-126-7-128 121z"/><path stroke-linejoin="round" stroke-miterlimit="1" fill="#0d0d0d" stroke="#0d0d0d" d="M174 348L16 191-1 311z"/><path stroke-linejoin="round" stroke-miterlimit="1" fill="#0e0f0f" stroke="#0e0f0f" d="M178 766l-95 2-10 80z"/><path stroke-linejoin="round" stroke-miterlimit="1" fill="#0c0c0c" stroke="#0c0c0c" d="M174 348L-1 311l159 139z"/><path stroke-linejoin="round" stroke-miterlimit="1" fill="#0d0d0d" stroke="#0d0d0d" d="M158 450L-1 311l116 175zM-1 311l-68 32-31 86z"/><path stroke-linejoin="round" stroke-miterlimit="1" fill="#121313" stroke="#121313" d="M16 191l-36 79 19 41z"/><path stroke-linejoin="round" stroke-miterlimit="1" fill="#0c0c0c" stroke="#0c0c0c" d="M83 768l-7-201-155-17z"/><path stroke-linejoin="round" stroke-miterlimit="1" fill="#151616" stroke="#151616" d="M90 113L57-53H38z"/><path stroke-linejoin="round" stroke-miterlimit="1" fill="#0c0c0c" stroke="#0c0c0c" d="M90 113L38-53l-81 170z"/><path stroke-linejoin="round" stroke-miterlimit="1" fill="#0d0e0d" stroke="#0d0e0d" d="M115 486L-1 311l-99 118z"/><path stroke-linejoin="round" stroke-miterlimit="1" fill="#0c0c0c" stroke="#0c0c0c" d="M115 486l-194 64 155 17z"/><path stroke-linejoin="round" stroke-miterlimit="1" fill="#0c0c0c" stroke="#0c0c0c" d="M115 486l-215-57 21 121z"/><path stroke-linejoin="round" stroke-miterlimit="1" fill="#0e0e0e" stroke="#0e0e0e" d="M73 848l-106 29 105 59z"/><path stroke-linejoin="round" stroke-miterlimit="1" fill="#0d0d0d" stroke="#0d0d0d" d="M83 768l-280 54 164 55z"/><path stroke-linejoin="round" stroke-miterlimit="1" fill="#0c0c0c" stroke="#0c0c0c" d="M83 768L-79 550l-118 272z"/><path stroke-linejoin="round" stroke-miterlimit="1" fill="#0d0d0d" stroke="#0d0d0d" d="M90 113l-133 4 59 74z"/><path stroke-linejoin="round" stroke-miterlimit="1" fill="#0c0c0c" stroke="#0c0c0c" d="M83 768L-33 877l106-29z"/><path stroke-linejoin="round" stroke-miterlimit="1" fill="#0d0d0d" stroke="#0d0d0d" d="M72 936l-105-59-21 52zM-79 550l-131 55 13 217z"/><path stroke-linejoin="round" stroke-miterlimit="1" fill="#0c0c0c" stroke="#0c0c0c" d="M38-53l-171 97 90 73z"/><path stroke-linejoin="round" stroke-miterlimit="1" fill="#0c0c0c" stroke="#0c0c0c" d="M38-53h-248l77 97z"/><path stroke-linejoin="round" stroke-miterlimit="1" fill="#0d0d0d" stroke="#0d0d0d" d="M16 191l-109-31 73 110z"/><path stroke-linejoin="round" stroke-miterlimit="1" fill="#0d0d0d" stroke="#0d0d0d" d="M16 191l-59-74-50 43z"/><path stroke-linejoin="round" stroke-miterlimit="1" fill="#0c0c0c" stroke="#0c0c0c" d="M-1 311l-19-41-49 73zm-53 618l-135 35 7 86z"/><path stroke-linejoin="round" stroke-miterlimit="1" fill="#0c0c0c" stroke="#0c0c0c" d="M-20 270l-69 71 20 2z"/><path stroke-linejoin="round" stroke-miterlimit="1" fill="#0d0d0d" stroke="#0d0d0d" d="M-20 270l-73-110 4 181z"/><path stroke-linejoin="round" stroke-miterlimit="1" fill="#0c0c0c" stroke="#0c0c0c" d="M-93 160l-117 126 8 15zm4 181l-4-181-109 141z"/><path stroke-linejoin="round" stroke-miterlimit="1" fill="#0e0e0e" stroke="#0e0e0e" d="M-33 877l-164-55 143 107z"/><path stroke-linejoin="round" stroke-miterlimit="1" fill="#131413" stroke="#131413" d="M-69 343l-20-2-11 88z"/><path stroke-linejoin="round" stroke-miterlimit="1" fill="#0c0c0c" stroke="#0c0c0c" d="M-43 117l-90-73 40 116zm-50 43l-117 23v103z"/><path stroke-linejoin="round" stroke-miterlimit="1" fill="#0d0e0e" stroke="#0d0e0e" d="M-79 550l-21-121-68 32z"/><path stroke-linejoin="round" stroke-miterlimit="1" fill="#0c0c0c" stroke="#0c0c0c" d="M-54 929l-143-107 8 142zm-79-885l-77-97V4z"/><path stroke-linejoin="round" stroke-miterlimit="1" fill="#0d0d0d" stroke="#0d0d0d" d="M-93 160l-40-116-77 47z"/><path stroke-linejoin="round" stroke-miterlimit="1" fill="#0c0c0c" stroke="#0c0c0c" d="M-89 341l-112 83 101 5z"/><path stroke-linejoin="round" stroke-miterlimit="1" fill="#0e0f0f" stroke="#0e0f0f" d="M-79 550l-89-89-42 64z"/><path stroke-linejoin="round" stroke-miterlimit="1" fill="#0c0c0c" stroke="#0c0c0c" d="M-79 550l-131-25v80z"/><path stroke-linejoin="round" stroke-miterlimit="1" fill="#0e0e0e" stroke="#0e0e0e" d="M-93 160l-117-69v85z"/><path stroke-linejoin="round" stroke-miterlimit="1" fill="#0c0c0c" stroke="#0c0c0c" d="M-89 341l-113-40 1 123z"/><path stroke-linejoin="round" stroke-miterlimit="1" fill="#0f0f0f" stroke="#0f0f0f" d="M-93 160l-117 16v7z"/><path stroke-linejoin="round" stroke-miterlimit="1" fill="#0f1010" stroke="#0f1010" d="M-100 429l-101-5 33 37z"/><path stroke-linejoin="round" stroke-miterlimit="1" fill="#181a1a" stroke="#181a1a" d="M-168 461l-42 38v26z"/><path stroke-linejoin="round" stroke-miterlimit="1" fill="#101010" stroke="#101010" d="M-133 44l-77-40v87z"/><path stroke-linejoin="round" stroke-miterlimit="1" fill="#0d0d0d" stroke="#0d0d0d" d="M-182 1050l-7-86-21 86z"/><path stroke-linejoin="round" stroke-miterlimit="1" fill="#101010" stroke="#101010" d="M-168 461l-33-37-9 75z"/><path stroke-linejoin="round" stroke-miterlimit="1" fill="#0e0f0f" stroke="#0e0f0f" d="M-189 964l-8-142-13 228z"/><path stroke-linejoin="round" stroke-miterlimit="1" fill="#1d201f" stroke="#1d201f" d="M-201 424l-1-123-8-15z"/><path stroke-linejoin="round" stroke-miterlimit="1" fill="#0c0c0c" stroke="#0c0c0c" d="M-197 822l-13-217v445zm-4-398l-9-138v213z"/></svg>